<?xml version="1.0" encoding="UTF-8" standalone="no"?>
<!-- Created with Inkscape (http://www.inkscape.org/) -->

<svg
   width="100"
   height="100"
   viewBox="0 0 26.458333 26.458331"
   version="1.1"
   id="svg32214"
   xml:space="preserve"
   inkscape:export-filename="versage.png"
   inkscape:export-xdpi="94.080002"
   inkscape:export-ydpi="94.080002"
   inkscape:version="1.2.2 (732a01da63, 2022-12-09)"
   sodipodi:docname="apple.svg"
   xmlns:inkscape="http://www.inkscape.org/namespaces/inkscape"
   xmlns:sodipodi="http://sodipodi.sourceforge.net/DTD/sodipodi-0.dtd"
   xmlns="http://www.w3.org/2000/svg"
   xmlns:svg="http://www.w3.org/2000/svg"><sodipodi:namedview
     id="namedview32216"
     pagecolor="#ffffff"
     bordercolor="#000000"
     borderopacity="0.25"
     inkscape:showpageshadow="2"
     inkscape:pageopacity="0.0"
     inkscape:pagecheckerboard="0"
     inkscape:deskcolor="#d1d1d1"
     inkscape:document-units="mm"
     showgrid="false"
     inkscape:zoom="2.1719924"
     inkscape:cx="15.423627"
     inkscape:cy="-28.54522"
     inkscape:window-width="1920"
     inkscape:window-height="1057"
     inkscape:window-x="-8"
     inkscape:window-y="-8"
     inkscape:window-maximized="1"
     inkscape:current-layer="layer1-9" /><defs
     id="defs32211"><pattern
       id="EMFhbasepattern"
       patternUnits="userSpaceOnUse"
       width="6"
       height="6"
       x="0"
       y="0" /><pattern
       id="EMFhbasepattern-9"
       patternUnits="userSpaceOnUse"
       width="6"
       height="6"
       x="0"
       y="0" /><pattern
       id="EMFhbasepattern-7"
       patternUnits="userSpaceOnUse"
       width="6"
       height="6"
       x="0"
       y="0" /><clipPath
       clipPathUnits="userSpaceOnUse"
       id="clipPath33521"><rect
         style="fill:none;stroke:#00ff00;stroke-width:0.105833"
         id="rect33523"
         width="75.202255"
         height="106.69482"
         x="-81.052208"
         y="126.72875" /></clipPath><inkscape:perspective
       sodipodi:type="inkscape:persp3d"
       inkscape:vp_x="0 : 539.41023 : 1"
       inkscape:vp_y="0 : 999.99996 : 0"
       inkscape:vp_z="744.09447 : 539.41023 : 1"
       inkscape:persp3d-origin="372.04724 : 364.01654 : 1"
       id="perspective10" /><inkscape:perspective
       id="perspective2399"
       inkscape:persp3d-origin="358.69965 : 174.44867 : 1"
       inkscape:vp_z="717.39928 : 255.05843 : 1"
       inkscape:vp_y="0 : 999.99996 : 0"
       inkscape:vp_x="0 : 255.05843 : 1"
       sodipodi:type="inkscape:persp3d" /><clipPath
       id="clipPath831"><path
         d="M 0,595.28 H 841.89 V 0 H 0 Z"
         id="path33767" /></clipPath><style
       id="style3233">.cls-1{fill:#fff}</style><inkscape:perspective
       sodipodi:type="inkscape:persp3d"
       inkscape:vp_x="0 : 539.41023 : 1"
       inkscape:vp_y="0 : 999.99996 : 0"
       inkscape:vp_z="744.09447 : 539.41023 : 1"
       inkscape:persp3d-origin="372.04724 : 364.01654 : 1"
       id="perspective10-5" /><inkscape:perspective
       id="perspective2390"
       inkscape:persp3d-origin="372.04724 : 364.01654 : 1"
       inkscape:vp_z="744.09447 : 539.41023 : 1"
       inkscape:vp_y="0 : 999.99996 : 0"
       inkscape:vp_x="0 : 539.41023 : 1"
       sodipodi:type="inkscape:persp3d" /><inkscape:perspective
       id="perspective2405"
       inkscape:persp3d-origin="372.04724 : 364.01654 : 1"
       inkscape:vp_z="744.09447 : 539.41023 : 1"
       inkscape:vp_y="0 : 999.99996 : 0"
       inkscape:vp_x="0 : 539.41023 : 1"
       sodipodi:type="inkscape:persp3d" /><inkscape:perspective
       sodipodi:type="inkscape:persp3d"
       inkscape:vp_x="0 : 526.18109 : 1"
       inkscape:vp_y="0 : 1000 : 0"
       inkscape:vp_z="744.09448 : 526.18109 : 1"
       inkscape:persp3d-origin="372.04724 : 350.78739 : 1"
       id="perspective10-7" /><inkscape:perspective
       id="perspective2390-6"
       inkscape:persp3d-origin="372.04724 : 350.78739 : 1"
       inkscape:vp_z="744.09448 : 526.18109 : 1"
       inkscape:vp_y="0 : 1000 : 0"
       inkscape:vp_x="0 : 526.18109 : 1"
       sodipodi:type="inkscape:persp3d" /><inkscape:perspective
       id="perspective2405-7"
       inkscape:persp3d-origin="372.04724 : 350.78739 : 1"
       inkscape:vp_z="744.09448 : 526.18109 : 1"
       inkscape:vp_y="0 : 1000 : 0"
       inkscape:vp_x="0 : 526.18109 : 1"
       sodipodi:type="inkscape:persp3d" /><style
       id="style3233-9">.cls-1{fill:#fff}</style></defs><g
     inkscape:label="Layer 1"
     inkscape:groupmode="layer"
     id="layer1"
     transform="translate(-40.2871,-85.425155)"><g
       id="g8882"
       transform="matrix(0.03984374,0,0,0.03984374,-2.7182696,74.491022)"
       style="stroke-width:6.64052"><g
         id="layer1-9"
         transform="matrix(6.6405245,0,0,6.6405245,841.91346,-712.43396)"><path
           d="m 110.50365,188.28191 c -0.37669,0.29226 -7.02721,4.03967 -7.02721,12.37231 0,9.63805 8.46253,13.04774 8.71582,13.13217 -0.039,0.20783 -1.34439,4.66966 -4.46182,9.21591 -2.77971,4.0007 -5.68282,7.99491 -10.099184,7.99491 -4.41636,0 -5.55292,-2.56538 -10.651221,-2.56538 -4.968402,0 -6.734945,2.64981 -10.77462,2.64981 -4.039669,0 -6.858344,-3.70195 -10.099173,-8.24821 -3.753907,-5.33859 -6.786903,-13.63226 -6.786903,-21.50377 0,-12.62559 8.209231,-19.32157 16.288569,-19.32157 4.292961,0 7.871511,2.81867 10.566793,2.81867 2.565389,0 6.566088,-2.98754 11.450061,-2.98754 1.850978,0 8.501498,0.16887 12.878888,6.44269 z M 95.306178,176.49413 c 2.019835,-2.39652 3.448657,-5.72179 3.448657,-9.04705 0,-0.46112 -0.03896,-0.92873 -0.123399,-1.30542 -3.286294,0.1234 -7.196071,2.1887 -9.553626,4.92294 -1.850977,2.10427 -3.57855,5.42953 -3.57855,8.80025 0,0.50658 0.08443,1.01317 0.123393,1.17553 0.207834,0.039 0.545554,0.0844 0.883274,0.0844 2.948574,0 6.657017,-1.97437 8.800251,-4.63068 z"
           id="path34442"
           style="stroke-width:6.6405" /></g></g></g><style
     type="text/css"
     id="style33823">
	.st0{fill:#97741F;}
	.st1{fill:#004C25;}
</style></svg>
