<?xml version="1.0" encoding="UTF-8" standalone="no"?>
<!-- Created with Inkscape (http://www.inkscape.org/) -->

<svg
   width="100"
   height="100"
   viewBox="0 0 26.458333 26.458331"
   version="1.1"
   id="svg32214"
   xml:space="preserve"
   inkscape:export-filename="versage.png"
   inkscape:export-xdpi="94.080002"
   inkscape:export-ydpi="94.080002"
   inkscape:version="1.2.2 (732a01da63, 2022-12-09)"
   sodipodi:docname="asus.svg"
   xmlns:inkscape="http://www.inkscape.org/namespaces/inkscape"
   xmlns:sodipodi="http://sodipodi.sourceforge.net/DTD/sodipodi-0.dtd"
   xmlns="http://www.w3.org/2000/svg"
   xmlns:svg="http://www.w3.org/2000/svg"><sodipodi:namedview
     id="namedview32216"
     pagecolor="#ffffff"
     bordercolor="#000000"
     borderopacity="0.25"
     inkscape:showpageshadow="2"
     inkscape:pageopacity="0.0"
     inkscape:pagecheckerboard="0"
     inkscape:deskcolor="#d1d1d1"
     inkscape:document-units="mm"
     showgrid="false"
     inkscape:zoom="1.0859962"
     inkscape:cx="190.148"
     inkscape:cy="254.14454"
     inkscape:window-width="1920"
     inkscape:window-height="1057"
     inkscape:window-x="-8"
     inkscape:window-y="-8"
     inkscape:window-maximized="1"
     inkscape:current-layer="g34857" /><defs
     id="defs32211"><pattern
       id="EMFhbasepattern"
       patternUnits="userSpaceOnUse"
       width="6"
       height="6"
       x="0"
       y="0" /><pattern
       id="EMFhbasepattern-9"
       patternUnits="userSpaceOnUse"
       width="6"
       height="6"
       x="0"
       y="0" /><pattern
       id="EMFhbasepattern-7"
       patternUnits="userSpaceOnUse"
       width="6"
       height="6"
       x="0"
       y="0" /><clipPath
       clipPathUnits="userSpaceOnUse"
       id="clipPath33521"><rect
         style="fill:none;stroke:#00ff00;stroke-width:0.105833"
         id="rect33523"
         width="75.202255"
         height="106.69482"
         x="-81.052208"
         y="126.72875" /></clipPath><inkscape:perspective
       sodipodi:type="inkscape:persp3d"
       inkscape:vp_x="0 : 539.41023 : 1"
       inkscape:vp_y="0 : 999.99996 : 0"
       inkscape:vp_z="744.09447 : 539.41023 : 1"
       inkscape:persp3d-origin="372.04724 : 364.01654 : 1"
       id="perspective10" /><inkscape:perspective
       id="perspective2399"
       inkscape:persp3d-origin="358.69965 : 174.44867 : 1"
       inkscape:vp_z="717.39928 : 255.05843 : 1"
       inkscape:vp_y="0 : 999.99996 : 0"
       inkscape:vp_x="0 : 255.05843 : 1"
       sodipodi:type="inkscape:persp3d" /><clipPath
       id="clipPath831"><path
         d="M 0,595.28 H 841.89 V 0 H 0 Z"
         id="path33767" /></clipPath><style
       id="style3233">.cls-1{fill:#fff}</style><inkscape:perspective
       sodipodi:type="inkscape:persp3d"
       inkscape:vp_x="0 : 539.41023 : 1"
       inkscape:vp_y="0 : 999.99996 : 0"
       inkscape:vp_z="744.09447 : 539.41023 : 1"
       inkscape:persp3d-origin="372.04724 : 364.01654 : 1"
       id="perspective10-5" /><inkscape:perspective
       id="perspective2390"
       inkscape:persp3d-origin="372.04724 : 364.01654 : 1"
       inkscape:vp_z="744.09447 : 539.41023 : 1"
       inkscape:vp_y="0 : 999.99996 : 0"
       inkscape:vp_x="0 : 539.41023 : 1"
       sodipodi:type="inkscape:persp3d" /><inkscape:perspective
       id="perspective2405"
       inkscape:persp3d-origin="372.04724 : 364.01654 : 1"
       inkscape:vp_z="744.09447 : 539.41023 : 1"
       inkscape:vp_y="0 : 999.99996 : 0"
       inkscape:vp_x="0 : 539.41023 : 1"
       sodipodi:type="inkscape:persp3d" /><inkscape:perspective
       sodipodi:type="inkscape:persp3d"
       inkscape:vp_x="0 : 526.18109 : 1"
       inkscape:vp_y="0 : 1000 : 0"
       inkscape:vp_z="744.09448 : 526.18109 : 1"
       inkscape:persp3d-origin="372.04724 : 350.78739 : 1"
       id="perspective10-7" /><inkscape:perspective
       id="perspective2390-6"
       inkscape:persp3d-origin="372.04724 : 350.78739 : 1"
       inkscape:vp_z="744.09448 : 526.18109 : 1"
       inkscape:vp_y="0 : 1000 : 0"
       inkscape:vp_x="0 : 526.18109 : 1"
       sodipodi:type="inkscape:persp3d" /><inkscape:perspective
       id="perspective2405-7"
       inkscape:persp3d-origin="372.04724 : 350.78739 : 1"
       inkscape:vp_z="744.09448 : 526.18109 : 1"
       inkscape:vp_y="0 : 1000 : 0"
       inkscape:vp_x="0 : 526.18109 : 1"
       sodipodi:type="inkscape:persp3d" /><style
       id="style3233-9">.cls-1{fill:#fff}</style><clipPath
       id="clipPath831-9"><path
         d="M 0,595.28 H 841.89 V 0 H 0 Z"
         id="path34476" /></clipPath><inkscape:perspective
       sodipodi:type="inkscape:persp3d"
       inkscape:vp_x="0 : 526.18109 : 1"
       inkscape:vp_y="0 : 1000 : 0"
       inkscape:vp_z="744.09448 : 526.18109 : 1"
       inkscape:persp3d-origin="372.04724 : 350.78739 : 1"
       id="perspective10-55" /><inkscape:perspective
       id="perspective2399-9"
       inkscape:persp3d-origin="358.69965 : 161.21951 : 1"
       inkscape:vp_z="717.39929 : 241.82927 : 1"
       inkscape:vp_y="0 : 1000 : 0"
       inkscape:vp_x="0 : 241.82927 : 1"
       sodipodi:type="inkscape:persp3d" /><style
       id="style34823">.cls-1,.cls-2,.cls-3,.cls-4{fill-rule:evenodd;}.cls-2{fill:#8a8a8b;}.cls-3{fill:#ed1c24;}.cls-4{fill:#fff;}</style></defs><g
     inkscape:label="Layer 1"
     inkscape:groupmode="layer"
     id="layer1"
     transform="translate(-40.2871,-85.425155)"><g
       id="g8882"
       transform="matrix(0.03984374,0,0,0.03984374,-2.7182696,74.491022)"
       style="stroke-width:6.64052"><g
         id="layer1-9"
         transform="matrix(6.6405245,0,0,6.6405245,841.91346,-712.43396)"><g
           id="g34857"
           transform="translate(-270.35038,304.28026)"><path
             class="st0"
             d="m 401.86117,-113.07875 c 0,-1.13573 0.9123,-2.06666 2.02941,-2.06666 0.53994,0 1.04264,0.22343 1.43363,0.5958 0.39099,0.39098 0.59579,0.9123 0.59579,1.45224 0,0.53994 -0.2048,1.06125 -0.59579,1.45224 -0.39099,0.39099 -0.89369,0.61441 -1.43363,0.61441 -1.11711,0 -2.02941,-0.9123 -2.02941,-2.04803 m -0.16757,0 c 0,1.22882 0.98678,2.23422 2.2156,2.23422 0.59579,0 1.13573,-0.22342 1.54534,-0.65165 0.4096,-0.42822 0.65164,-0.98678 0.65164,-1.58257 0,-0.59579 -0.22342,-1.15435 -0.65164,-1.58258 -0.42823,-0.42822 -0.96817,-0.65164 -1.54534,-0.65164 -1.22882,0 -2.2156,1.0054 -2.2156,2.23422 m 1.37777,1.32191 h 0.31651 v -1.04263 h 0.70751 c 0.11171,0 0.2048,0 0.27927,0.0372 0.0931,0.0559 0.14895,0.16757 0.16757,0.31652 l 0.0372,0.4096 c 0,0.0931 0,0.14895 0,0.18619 0.0186,0.0372 0.0186,0.0558 0.0372,0.0745 h 0.39099 v -0.0558 c -0.0559,-0.0186 -0.0745,-0.0745 -0.0931,-0.14895 -0.0186,-0.0372 -0.0186,-0.11171 -0.0186,-0.2048 l -0.0186,-0.31652 c 0,-0.14895 -0.0372,-0.24204 -0.0745,-0.29789 -0.0559,-0.0559 -0.13033,-0.11172 -0.22342,-0.14895 0.11171,-0.0559 0.18618,-0.13033 0.24204,-0.22342 0.0559,-0.0931 0.0745,-0.20481 0.0745,-0.35376 0,-0.27927 -0.11171,-0.46546 -0.31651,-0.57717 -0.11171,-0.0559 -0.26066,-0.0745 -0.42823,-0.0745 h -1.06125 z m 0.29789,-1.32191 v -0.83783 h 0.74474 c 0.11172,0 0.20481,0.0186 0.26066,0.0558 0.11171,0.0559 0.16757,0.18619 0.16757,0.35375 0,0.16757 -0.0372,0.27928 -0.13033,0.33514 -0.0745,0.0558 -0.18618,0.0931 -0.33513,0.0931 z m -88.21448,3.07205 -9.0486,14.224541 h 6.18135 l 8.71346,-13.591511 z m 37.25563,-0.31651 v -5.26904 h -17.59449 c -2.40179,0.14895 -3.44442,1.30329 -4.2264,2.12251 -0.83783,0.87507 -1.30329,2.7183 -1.30329,2.7183 v -4.80357 h -9.36511 c -0.70751,0 -1.37777,0.29789 -1.88047,1.0054 -0.52132,0.68888 -2.66245,4.2264 -2.66245,4.2264 z m 47.84956,0 v -5.26904 h -18.82331 c -2.38317,0.14895 -3.44442,1.30329 -4.2264,2.12251 -0.83783,0.87507 -1.30329,2.7183 -1.30329,2.7183 v 0.42823 z m -41.66821,-5.25042 h -5.26904 v 5.25042 h 5.26904 z m 17.25935,0 h -5.25042 v 5.25042 h 5.25042 z m 0,7.1495 -5.17594,-0.31651 v 6.08825 c 0,0 -0.0186,1.75014 -1.71291,1.75014 h -8.86241 c 0,0 -1.50809,-0.13033 -1.50809,-1.73152 v -6.92608 l -5.21319,-0.37237 v 9.32787 c 0.83784,4.468441 4.87805,4.822191 4.87805,4.822191 0,0 0.40961,0.0186 0.48408,0.0372 h 12.00894 c 0,0 5.13871,-0.40961 5.13871,-5.362131 z m -51.92701,12.641971 h 24.61366 c 4.28226,-0.85645 4.7291,-4.766341 4.7291,-4.766341 0.20481,-1.15434 0.0931,-2.10389 0.0931,-2.10389 -0.13032,-0.78198 -1.61981,-4.24502 -4.82219,-4.54291 -1.9177,-0.18619 -18.99088,-1.54534 -18.99088,-1.54534 0.33514,1.7129 1.0985,2.58797 1.61981,3.07205 1.19159,1.13573 3.07206,1.47087 3.07206,1.47087 0.44684,0.0372 13.16328,1.09849 13.16328,1.09849 0.40961,0.0186 1.17297,0.13033 1.15435,1.13573 0,0.13033 -0.11171,1.0054 -1.07987,1.0054 h -18.41371 v -7.81978 l -5.12009,-0.37237 c -0.0186,0 -0.0186,13.368091 -0.0186,13.368091 z m 51.96425,0.0372 h 18.84193 c 4.7291,-0.27928 5.39936,-4.766341 5.39936,-4.766341 0.16757,-1.17297 0.0372,-2.14113 0.0372,-2.14113 -0.13033,-1.06125 -1.63843,-4.26364 -4.85943,-4.58015 -1.89909,-0.18619 -19.08397,-1.19159 -19.08397,-1.19159 0.5027,1.76876 1.19159,2.3087 1.7129,2.79278 1.19159,1.15435 2.96035,1.41501 2.96035,1.41501 0.44684,0.0372 13.29361,1.11711 13.29361,1.11711 0.40961,0.0186 1.24744,0.0558 1.24744,1.06125 0,0.2979 -0.14895,0.61441 -0.33513,0.78198 0,0 -0.44685,0.24204 -0.87507,0.24204 h -18.28338 z"
             id="path34910"
             style="stroke-width:6.64051" /></g></g></g></g><style
     type="text/css"
     id="style33823">
	.st0{fill:#97741F;}
	.st1{fill:#004C25;}
</style><style
     type="text/css"
     id="style34908">
	.st0{fill:#00539B;}
</style></svg>
