<?xml version="1.0" encoding="UTF-8" standalone="no"?>
<!-- Created with Inkscape (http://www.inkscape.org/) -->

<svg
   width="100"
   height="100"
   viewBox="0 0 26.458333 26.458331"
   version="1.1"
   id="svg32214"
   xml:space="preserve"
   inkscape:export-filename="versage.png"
   inkscape:export-xdpi="94.080002"
   inkscape:export-ydpi="94.080002"
   inkscape:version="1.2.2 (732a01da63, 2022-12-09)"
   sodipodi:docname="dell.svg"
   xmlns:inkscape="http://www.inkscape.org/namespaces/inkscape"
   xmlns:sodipodi="http://sodipodi.sourceforge.net/DTD/sodipodi-0.dtd"
   xmlns="http://www.w3.org/2000/svg"
   xmlns:svg="http://www.w3.org/2000/svg"><sodipodi:namedview
     id="namedview32216"
     pagecolor="#ffffff"
     bordercolor="#000000"
     borderopacity="0.25"
     inkscape:showpageshadow="2"
     inkscape:pageopacity="0.0"
     inkscape:pagecheckerboard="0"
     inkscape:deskcolor="#d1d1d1"
     inkscape:document-units="mm"
     showgrid="false"
     inkscape:zoom="4.3439847"
     inkscape:cx="29.811339"
     inkscape:cy="48.803118"
     inkscape:window-width="1920"
     inkscape:window-height="1057"
     inkscape:window-x="-8"
     inkscape:window-y="-8"
     inkscape:window-maximized="1"
     inkscape:current-layer="layer1-9" /><defs
     id="defs32211"><pattern
       id="EMFhbasepattern"
       patternUnits="userSpaceOnUse"
       width="6"
       height="6"
       x="0"
       y="0" /><pattern
       id="EMFhbasepattern-9"
       patternUnits="userSpaceOnUse"
       width="6"
       height="6"
       x="0"
       y="0" /><pattern
       id="EMFhbasepattern-7"
       patternUnits="userSpaceOnUse"
       width="6"
       height="6"
       x="0"
       y="0" /><clipPath
       clipPathUnits="userSpaceOnUse"
       id="clipPath33521"><rect
         style="fill:none;stroke:#00ff00;stroke-width:0.105833"
         id="rect33523"
         width="75.202255"
         height="106.69482"
         x="-81.052208"
         y="126.72875" /></clipPath><inkscape:perspective
       sodipodi:type="inkscape:persp3d"
       inkscape:vp_x="0 : 539.41023 : 1"
       inkscape:vp_y="0 : 999.99996 : 0"
       inkscape:vp_z="744.09447 : 539.41023 : 1"
       inkscape:persp3d-origin="372.04724 : 364.01654 : 1"
       id="perspective10" /><inkscape:perspective
       id="perspective2399"
       inkscape:persp3d-origin="358.69965 : 174.44867 : 1"
       inkscape:vp_z="717.39928 : 255.05843 : 1"
       inkscape:vp_y="0 : 999.99996 : 0"
       inkscape:vp_x="0 : 255.05843 : 1"
       sodipodi:type="inkscape:persp3d" /><clipPath
       id="clipPath831"><path
         d="M 0,595.28 H 841.89 V 0 H 0 Z"
         id="path33767" /></clipPath><style
       id="style3233">.cls-1{fill:#fff}</style><inkscape:perspective
       sodipodi:type="inkscape:persp3d"
       inkscape:vp_x="0 : 539.41023 : 1"
       inkscape:vp_y="0 : 999.99996 : 0"
       inkscape:vp_z="744.09447 : 539.41023 : 1"
       inkscape:persp3d-origin="372.04724 : 364.01654 : 1"
       id="perspective10-5" /><inkscape:perspective
       id="perspective2390"
       inkscape:persp3d-origin="372.04724 : 364.01654 : 1"
       inkscape:vp_z="744.09447 : 539.41023 : 1"
       inkscape:vp_y="0 : 999.99996 : 0"
       inkscape:vp_x="0 : 539.41023 : 1"
       sodipodi:type="inkscape:persp3d" /><inkscape:perspective
       id="perspective2405"
       inkscape:persp3d-origin="372.04724 : 364.01654 : 1"
       inkscape:vp_z="744.09447 : 539.41023 : 1"
       inkscape:vp_y="0 : 999.99996 : 0"
       inkscape:vp_x="0 : 539.41023 : 1"
       sodipodi:type="inkscape:persp3d" /></defs><g
     inkscape:label="Layer 1"
     inkscape:groupmode="layer"
     id="layer1"
     transform="translate(-40.2871,-85.425155)"><g
       id="g8882"
       transform="matrix(0.03984374,0,0,0.03984374,-2.7182696,74.491022)"
       style="stroke-width:6.64052"><g
         id="layer1-9"
         transform="matrix(6.6405245,0,0,6.6405245,841.91346,-712.43396)"><g
           transform="matrix(0.33557047,0,0,0.33557047,-71.403177,0.71140609)"
           id="layer1-8"
           style="stroke-width:19.7887"><g
             transform="matrix(4.579965,0,0,-4.579965,468.34291,456.8459)"
             id="g3460"
             style="stroke-width:19.7887"><path
               id="path3462"
               style="fill:#007db8;fill-opacity:1;fill-rule:nonzero;stroke:none;stroke-width:19.7887"
               d="m 0,0 c -8.01,0 -15.264,-3.249 -20.516,-8.505 -5.254,-5.244 -8.501,-12.502 -8.501,-20.516 0,-8.008 3.247,-15.261 8.501,-20.507 5.252,-5.249 12.506,-8.504 20.516,-8.504 8.012,0 15.27,3.255 20.514,8.504 5.252,5.246 8.492,12.499 8.492,20.507 0,8.014 -3.24,15.272 -8.492,20.516 C 15.27,-3.249 8.012,0 0,0 m 0,3.516 c 17.965,0 32.531,-14.568 32.531,-32.537 0,-17.963 -14.566,-32.529 -32.531,-32.529 -17.963,0 -32.535,14.566 -32.535,32.529 0,17.969 14.572,32.537 32.535,32.537" /></g><g
             transform="matrix(4.579965,0,0,-4.579965,397.87238,588.54693)"
             id="g3464"
             style="stroke-width:19.7887"><path
               id="path3466"
               style="fill:#007db8;fill-opacity:1;fill-rule:nonzero;stroke:none;stroke-width:19.7887"
               d="m 0,0 c 0,1.896 -1.258,2.973 -3.039,2.973 h -1.09 V -2.975 H -3.07 C -1.414,-2.975 0,-2.075 0,0 M 19.389,-2.14 11.359,-8.463 4.02,-2.685 C 2.961,-5.229 0.402,-6.996 -2.545,-6.996 H -8.826 V 6.996 h 6.281 c 3.293,0 5.666,-2.094 6.563,-4.325 l 7.341,5.772 2.719,-2.14 -6.728,-5.288 1.293,-1.012 6.726,5.285 2.723,-2.134 -6.727,-5.294 1.291,-1.014 6.733,5.295 v 4.855 h 4.881 v -9.908 h 4.869 v -4.101 h -9.75 z m 15.933,-0.774 h 4.867 V -7.013 H 30.436 V 6.996 h 4.886 z" /></g></g></g></g></g><style
     type="text/css"
     id="style33823">
	.st0{fill:#97741F;}
	.st1{fill:#004C25;}
</style></svg>
