<?xml version="1.0" encoding="UTF-8" standalone="no"?>
<!-- Created with Inkscape (http://www.inkscape.org/) -->

<svg
   width="100"
   height="100"
   viewBox="0 0 26.458333 26.458331"
   version="1.1"
   id="svg32214"
   xml:space="preserve"
   inkscape:export-filename="versage.png"
   inkscape:export-xdpi="94.080002"
   inkscape:export-ydpi="94.080002"
   inkscape:version="1.2.2 (732a01da63, 2022-12-09)"
   sodipodi:docname="gucci.svg"
   xmlns:inkscape="http://www.inkscape.org/namespaces/inkscape"
   xmlns:sodipodi="http://sodipodi.sourceforge.net/DTD/sodipodi-0.dtd"
   xmlns="http://www.w3.org/2000/svg"
   xmlns:svg="http://www.w3.org/2000/svg"><sodipodi:namedview
     id="namedview32216"
     pagecolor="#ffffff"
     bordercolor="#000000"
     borderopacity="0.25"
     inkscape:showpageshadow="2"
     inkscape:pageopacity="0.0"
     inkscape:pagecheckerboard="0"
     inkscape:deskcolor="#d1d1d1"
     inkscape:document-units="mm"
     showgrid="false"
     inkscape:zoom="3.071661"
     inkscape:cx="76.017502"
     inkscape:cy="36.462357"
     inkscape:window-width="1920"
     inkscape:window-height="1057"
     inkscape:window-x="-8"
     inkscape:window-y="-8"
     inkscape:window-maximized="1"
     inkscape:current-layer="layer1-9" /><defs
     id="defs32211"><pattern
       id="EMFhbasepattern"
       patternUnits="userSpaceOnUse"
       width="6"
       height="6"
       x="0"
       y="0" /><pattern
       id="EMFhbasepattern-9"
       patternUnits="userSpaceOnUse"
       width="6"
       height="6"
       x="0"
       y="0" /><pattern
       id="EMFhbasepattern-7"
       patternUnits="userSpaceOnUse"
       width="6"
       height="6"
       x="0"
       y="0" /><clipPath
       clipPathUnits="userSpaceOnUse"
       id="clipPath33521"><rect
         style="fill:none;stroke:#00ff00;stroke-width:0.105833"
         id="rect33523"
         width="75.202255"
         height="106.69482"
         x="-81.052208"
         y="126.72875" /></clipPath><inkscape:perspective
       sodipodi:type="inkscape:persp3d"
       inkscape:vp_x="0 : 539.41023 : 1"
       inkscape:vp_y="0 : 999.99996 : 0"
       inkscape:vp_z="744.09447 : 539.41023 : 1"
       inkscape:persp3d-origin="372.04724 : 364.01654 : 1"
       id="perspective10" /><inkscape:perspective
       id="perspective2399"
       inkscape:persp3d-origin="358.69965 : 174.44867 : 1"
       inkscape:vp_z="717.39928 : 255.05843 : 1"
       inkscape:vp_y="0 : 999.99996 : 0"
       inkscape:vp_x="0 : 255.05843 : 1"
       sodipodi:type="inkscape:persp3d" /><clipPath
       id="clipPath831"><path
         d="M 0,595.28 H 841.89 V 0 H 0 Z"
         id="path33767" /></clipPath><style
       id="style3233">.cls-1{fill:#fff}</style><inkscape:perspective
       sodipodi:type="inkscape:persp3d"
       inkscape:vp_x="0 : 539.41023 : 1"
       inkscape:vp_y="0 : 999.99996 : 0"
       inkscape:vp_z="744.09447 : 539.41023 : 1"
       inkscape:persp3d-origin="372.04724 : 364.01654 : 1"
       id="perspective10-5" /><inkscape:perspective
       id="perspective2390"
       inkscape:persp3d-origin="372.04724 : 364.01654 : 1"
       inkscape:vp_z="744.09447 : 539.41023 : 1"
       inkscape:vp_y="0 : 999.99996 : 0"
       inkscape:vp_x="0 : 539.41023 : 1"
       sodipodi:type="inkscape:persp3d" /><inkscape:perspective
       id="perspective2405"
       inkscape:persp3d-origin="372.04724 : 364.01654 : 1"
       inkscape:vp_z="744.09447 : 539.41023 : 1"
       inkscape:vp_y="0 : 999.99996 : 0"
       inkscape:vp_x="0 : 539.41023 : 1"
       sodipodi:type="inkscape:persp3d" /></defs><g
     inkscape:label="Layer 1"
     inkscape:groupmode="layer"
     id="layer1"
     transform="translate(-40.2871,-85.425155)"><g
       id="g8882"
       transform="matrix(0.03984374,0,0,0.03984374,-2.7182696,74.491022)"
       style="stroke-width:6.64052"><g
         id="layer1-9"
         transform="matrix(6.6405245,0,0,6.6405245,841.91346,-712.43396)"><g
           id="layer1-5"
           transform="matrix(0.78520671,0,0,0.78520671,37.811078,15.402122)"
           style="stroke-width:8.45703"><path
             d="m 116.792,259.866 c 0,20.504 -16.634,37.138 -37.138,37.138 -5.907,0 -11.474,-1.357 -16.498,-3.87 -4.957,2.445 -10.592,3.87 -16.43,3.87 -20.505,0 -37.139,-16.634 -37.139,-37.138 0,-20.504 16.634,-37.138 37.138,-37.138 5.907,0 11.474,1.358 16.43,3.802 4.957,-2.444 10.592,-3.802 16.499,-3.802 20.504,0 37.138,16.634 37.138,37.138 z m -7.332,0 c 0,-16.43 -13.376,-29.805 -29.806,-29.805 -3.123,0 -6.178,0.475 -8.962,1.358 5.703,4.752 9.845,11.134 11.881,18.467 H 74.901 A 29.686,29.686 0 0 0 63.224,234.949 c -5.364,3.53 -9.438,8.759 -11.61,14.937 h -7.672 a 37.368,37.368 0 0 1 11.881,-18.535 30.604,30.604 0 0 0 -9.03,-1.358 c -16.43,0 -29.805,13.375 -29.805,29.805 0,16.43 13.375,29.806 29.805,29.806 3.123,0 6.11,-0.475 8.894,-1.358 -7.4,-6.178 -12.22,-15.276 -12.967,-25.46 h 17.652 v 7.264 l -8.623,0.136 c 2.241,5.975 6.247,11 11.475,14.462 5.227,-3.463 9.233,-8.487 11.474,-14.462 l -8.623,-0.136 v -7.264 H 83.728 C 82.913,272.97 78.025,282 70.624,288.178 c 2.852,0.883 5.907,1.426 9.03,1.426 16.498,0.068 29.806,-13.24 29.806,-29.738 z"
             id="path855"
             clip-rule="evenodd"
             fill-rule="evenodd"
             stroke-width="0.86474" /><path
             style="line-height:1000%"
             d="m 110.626,177.408 -0.228,0.076 q -1.331,-2.891 -3.804,-4.603 -2.434,-1.711 -6.123,-1.711 -2.054,0 -3.918,0.875 -1.864,0.836 -3.271,2.396 -1.37,1.521 -2.206,3.69 -0.837,2.167 -0.837,4.792 0,2.624 0.837,4.792 0.837,2.168 2.206,3.728 1.407,1.521 3.27,2.358 1.865,0.837 3.919,0.837 3.651,0 5.933,-1.141 2.32,-1.18 3.918,-3.576 l 0.228,0.076 -0.076,2.434 q -0.875,0.913 -2.016,1.636 -1.14,0.685 -2.472,1.18 -1.293,0.455 -2.7,0.684 -1.408,0.266 -2.815,0.266 -2.929,0 -5.591,-0.95 -2.663,-0.952 -4.679,-2.663 -2.016,-1.75 -3.195,-4.184 -1.179,-2.472 -1.179,-5.477 0,-3.005 1.18,-5.44 1.178,-2.472 3.194,-4.221 2.016,-1.75 4.679,-2.663 2.662,-0.95 5.59,-0.95 1.408,0 2.816,0.227 1.407,0.229 2.7,0.723 1.331,0.457 2.472,1.18 1.141,0.684 2.016,1.597 z"
             stroke-width="8.86136"
             id="path34208" /><path
             style="line-height:1000%"
             d="m 26.81,184.673 q -0.418,0.19 -0.798,0.494 -0.38,0.304 -0.38,0.837 v 4.679 q -1.827,2.624 -4.68,4.07 -2.852,1.445 -6.313,1.445 -2.929,0 -5.592,-0.951 -2.662,-0.951 -4.678,-2.663 -2.016,-1.75 -3.195,-4.183 -1.179,-2.473 -1.179,-5.478 0,-3.004 1.18,-5.439 1.178,-2.472 3.194,-4.222 2.016,-1.75 4.678,-2.662 2.663,-0.951 5.592,-0.951 1.407,0 2.814,0.228 1.408,0.228 2.7,0.723 1.332,0.456 2.473,1.179 1.141,0.685 2.016,1.597 l 0.153,4.032 -0.229,0.076 q -1.33,-2.89 -3.803,-4.602 -2.435,-1.712 -6.124,-1.712 -2.054,0 -3.918,0.875 -1.863,0.837 -3.27,2.396 -1.37,1.522 -2.207,3.69 -0.837,2.168 -0.837,4.792 0,2.586 0.8,4.754 0.836,2.169 2.205,3.728 1.408,1.521 3.271,2.396 1.864,0.837 3.956,0.837 3.956,0 6.77,-1.521 v -7.113 q 0,-0.532 -0.418,-0.837 -0.38,-0.304 -0.76,-0.495 l 0.034,-0.19 q 0.19,0.035 0.685,0.076 0.495,0.035 1.027,0.076 h 3.271 q 0.457,-0.035 0.875,-0.076 0.418,-0.035 0.646,-0.076 z"
             stroke-width="8.86136"
             id="path34210" /><path
             style="line-height:1000%"
             d="m 54.36,170.447 q -0.38,0.19 -0.76,0.495 -0.381,0.304 -0.419,1.141 -0.035,0.913 -0.076,2.32 0,1.37 -0.034,3.12 0,1.749 -0.035,3.803 v 4.26 q -0.035,2.472 -0.609,4.222 -0.57,1.75 -1.521,2.928 -0.913,1.18 -2.054,1.864 -1.103,0.685 -2.206,1.027 -1.065,0.38 -2.016,0.457 -0.951,0.114 -1.484,0.114 -2.168,0 -4.184,-0.57 -2.016,-0.533 -3.537,-1.75 -1.521,-1.218 -2.434,-3.157 -0.913,-1.94 -0.913,-4.717 v -4.298 -3.956 q 0,-1.825 -0.035,-3.27 0,-1.484 -0.035,-2.397 -0.034,-0.837 -0.418,-1.14 -0.38,-0.305 -0.76,-0.496 l 0.034,-0.19 q 0.19,0.035 0.61,0.076 0.456,0.035 0.912,0.076 0.495,0 0.95,0.035 h 1.37 q 0.457,-0.035 0.951,-0.035 0.495,-0.035 0.913,-0.076 0.456,-0.035 0.646,-0.076 l 0.035,0.19 q -0.418,0.19 -0.799,0.495 -0.342,0.304 -0.38,1.141 -0.035,0.913 -0.076,2.396 v 11.525 q 0,4.146 1.94,6.124 1.94,1.978 5.743,1.978 1.103,0 2.51,-0.267 1.408,-0.304 2.625,-1.217 1.255,-0.913 2.092,-2.586 0.875,-1.674 0.875,-4.45 0,-3.005 -0.035,-5.135 0,-2.168 -0.035,-3.69 0,-1.56 -0.035,-2.662 -0.034,-1.103 -0.076,-2.016 -0.034,-0.837 -0.418,-1.141 -0.38,-0.304 -0.76,-0.495 l 0.034,-0.19 q 0.419,0.076 0.951,0.153 0.533,0.034 0.99,0.034 0.417,0 0.95,-0.034 0.57,-0.076 0.989,-0.153 z"
             stroke-width="8.86136"
             id="path34212" /><path
             style="line-height:1000%"
             d="m 81.96,177.408 -0.228,0.076 q -1.332,-2.891 -3.804,-4.603 -2.434,-1.711 -6.124,-1.711 -2.053,0 -3.917,0.875 -1.864,0.836 -3.271,2.396 -1.37,1.521 -2.206,3.69 -0.837,2.167 -0.837,4.792 0,2.624 0.837,4.792 0.836,2.168 2.206,3.728 1.407,1.521 3.27,2.358 1.865,0.837 3.918,0.837 3.652,0 5.934,-1.141 2.32,-1.18 3.918,-3.576 l 0.228,0.076 -0.076,2.434 q -0.875,0.913 -2.016,1.636 -1.14,0.685 -2.472,1.18 -1.293,0.455 -2.7,0.684 -1.408,0.266 -2.815,0.266 -2.93,0 -5.592,-0.95 -2.662,-0.952 -4.678,-2.663 -2.016,-1.75 -3.195,-4.184 -1.18,-2.472 -1.18,-5.477 0,-3.005 1.18,-5.44 1.18,-2.472 3.195,-4.221 2.016,-1.75 4.678,-2.663 2.663,-0.95 5.592,-0.95 1.407,0 2.814,0.227 1.408,0.229 2.7,0.723 1.332,0.457 2.473,1.18 1.141,0.684 2.016,1.597 z"
             stroke-width="8.86136"
             id="path34214" /><path
             style="line-height:1000%"
             d="m 122.09,195.55 q -0.19,-0.034 -0.646,-0.075 -0.418,0 -0.913,-0.035 -0.495,0 -0.951,-0.034 h -2.281 q -0.457,0.034 -0.914,0.075 -0.418,0.035 -0.646,0.076 l -0.035,-0.152 q 0.38,-0.19 0.76,-0.495 0.381,-0.304 0.419,-1.141 0.035,-0.913 0.035,-1.902 0.035,-0.989 0.035,-2.244 v -2.853 -3.841 -3.842 -2.89 q 0,-1.256 -0.035,-2.207 0,-0.989 -0.035,-1.901 -0.035,-0.837 -0.418,-1.141 -0.38,-0.343 -0.76,-0.533 l 0.034,-0.152 q 0.228,0.076 0.646,0.114 0.457,0 0.913,0.035 0.495,0.035 0.951,0.035 h 1.331 q 0.456,-0.035 0.95,-0.035 0.496,-0.035 0.914,-0.076 0.456,-0.035 0.646,-0.076 l 0.035,0.153 q -0.418,0.19 -0.799,0.532 -0.342,0.304 -0.38,1.14 -0.035,0.914 -0.076,1.903 v 17.877 q 0.035,0.988 0.076,1.901 0.034,0.837 0.38,1.141 0.38,0.304 0.799,0.495 z"
             stroke-width="8.86136"
             id="path34216" /></g></g></g></g><style
     type="text/css"
     id="style33823">
	.st0{fill:#97741F;}
	.st1{fill:#004C25;}
</style></svg>
