<?xml version="1.0" encoding="UTF-8" standalone="no"?>
<!-- Created with Inkscape (http://www.inkscape.org/) -->

<svg
   width="100"
   height="100"
   viewBox="0 0 26.458333 26.458331"
   version="1.1"
   id="svg32214"
   xml:space="preserve"
   inkscape:export-filename="versage.png"
   inkscape:export-xdpi="94.080002"
   inkscape:export-ydpi="94.080002"
   inkscape:version="1.2.2 (732a01da63, 2022-12-09)"
   sodipodi:docname="huawei.svg"
   xmlns:inkscape="http://www.inkscape.org/namespaces/inkscape"
   xmlns:sodipodi="http://sodipodi.sourceforge.net/DTD/sodipodi-0.dtd"
   xmlns="http://www.w3.org/2000/svg"
   xmlns:svg="http://www.w3.org/2000/svg"><sodipodi:namedview
     id="namedview32216"
     pagecolor="#ffffff"
     bordercolor="#000000"
     borderopacity="0.25"
     inkscape:showpageshadow="2"
     inkscape:pageopacity="0.0"
     inkscape:pagecheckerboard="0"
     inkscape:deskcolor="#d1d1d1"
     inkscape:document-units="mm"
     showgrid="false"
     inkscape:zoom="1.0859962"
     inkscape:cx="41.897017"
     inkscape:cy="119.70576"
     inkscape:window-width="1920"
     inkscape:window-height="1057"
     inkscape:window-x="-8"
     inkscape:window-y="-8"
     inkscape:window-maximized="1"
     inkscape:current-layer="layer1-9" /><defs
     id="defs32211"><pattern
       id="EMFhbasepattern"
       patternUnits="userSpaceOnUse"
       width="6"
       height="6"
       x="0"
       y="0" /><pattern
       id="EMFhbasepattern-9"
       patternUnits="userSpaceOnUse"
       width="6"
       height="6"
       x="0"
       y="0" /><pattern
       id="EMFhbasepattern-7"
       patternUnits="userSpaceOnUse"
       width="6"
       height="6"
       x="0"
       y="0" /><clipPath
       clipPathUnits="userSpaceOnUse"
       id="clipPath33521"><rect
         style="fill:none;stroke:#00ff00;stroke-width:0.105833"
         id="rect33523"
         width="75.202255"
         height="106.69482"
         x="-81.052208"
         y="126.72875" /></clipPath><inkscape:perspective
       sodipodi:type="inkscape:persp3d"
       inkscape:vp_x="0 : 539.41023 : 1"
       inkscape:vp_y="0 : 999.99996 : 0"
       inkscape:vp_z="744.09447 : 539.41023 : 1"
       inkscape:persp3d-origin="372.04724 : 364.01654 : 1"
       id="perspective10" /><inkscape:perspective
       id="perspective2399"
       inkscape:persp3d-origin="358.69965 : 174.44867 : 1"
       inkscape:vp_z="717.39928 : 255.05843 : 1"
       inkscape:vp_y="0 : 999.99996 : 0"
       inkscape:vp_x="0 : 255.05843 : 1"
       sodipodi:type="inkscape:persp3d" /><clipPath
       id="clipPath831"><path
         d="M 0,595.28 H 841.89 V 0 H 0 Z"
         id="path33767" /></clipPath><style
       id="style3233">.cls-1{fill:#fff}</style><inkscape:perspective
       sodipodi:type="inkscape:persp3d"
       inkscape:vp_x="0 : 539.41023 : 1"
       inkscape:vp_y="0 : 999.99996 : 0"
       inkscape:vp_z="744.09447 : 539.41023 : 1"
       inkscape:persp3d-origin="372.04724 : 364.01654 : 1"
       id="perspective10-5" /><inkscape:perspective
       id="perspective2390"
       inkscape:persp3d-origin="372.04724 : 364.01654 : 1"
       inkscape:vp_z="744.09447 : 539.41023 : 1"
       inkscape:vp_y="0 : 999.99996 : 0"
       inkscape:vp_x="0 : 539.41023 : 1"
       sodipodi:type="inkscape:persp3d" /><inkscape:perspective
       id="perspective2405"
       inkscape:persp3d-origin="372.04724 : 364.01654 : 1"
       inkscape:vp_z="744.09447 : 539.41023 : 1"
       inkscape:vp_y="0 : 999.99996 : 0"
       inkscape:vp_x="0 : 539.41023 : 1"
       sodipodi:type="inkscape:persp3d" /><inkscape:perspective
       sodipodi:type="inkscape:persp3d"
       inkscape:vp_x="0 : 526.18109 : 1"
       inkscape:vp_y="0 : 1000 : 0"
       inkscape:vp_z="744.09448 : 526.18109 : 1"
       inkscape:persp3d-origin="372.04724 : 350.78739 : 1"
       id="perspective10-7" /><inkscape:perspective
       id="perspective2390-6"
       inkscape:persp3d-origin="372.04724 : 350.78739 : 1"
       inkscape:vp_z="744.09448 : 526.18109 : 1"
       inkscape:vp_y="0 : 1000 : 0"
       inkscape:vp_x="0 : 526.18109 : 1"
       sodipodi:type="inkscape:persp3d" /><inkscape:perspective
       id="perspective2405-7"
       inkscape:persp3d-origin="372.04724 : 350.78739 : 1"
       inkscape:vp_z="744.09448 : 526.18109 : 1"
       inkscape:vp_y="0 : 1000 : 0"
       inkscape:vp_x="0 : 526.18109 : 1"
       sodipodi:type="inkscape:persp3d" /><style
       id="style3233-9">.cls-1{fill:#fff}</style><clipPath
       id="clipPath831-9"><path
         d="M 0,595.28 H 841.89 V 0 H 0 Z"
         id="path34476" /></clipPath><inkscape:perspective
       sodipodi:type="inkscape:persp3d"
       inkscape:vp_x="0 : 526.18109 : 1"
       inkscape:vp_y="0 : 1000 : 0"
       inkscape:vp_z="744.09448 : 526.18109 : 1"
       inkscape:persp3d-origin="372.04724 : 350.78739 : 1"
       id="perspective10-55" /><inkscape:perspective
       id="perspective2399-9"
       inkscape:persp3d-origin="358.69965 : 161.21951 : 1"
       inkscape:vp_z="717.39929 : 241.82927 : 1"
       inkscape:vp_y="0 : 1000 : 0"
       inkscape:vp_x="0 : 241.82927 : 1"
       sodipodi:type="inkscape:persp3d" /></defs><g
     inkscape:label="Layer 1"
     inkscape:groupmode="layer"
     id="layer1"
     transform="translate(-40.2871,-85.425155)"><g
       id="g8882"
       transform="matrix(0.03984374,0,0,0.03984374,-2.7182696,74.491022)"
       style="stroke-width:6.64052"><g
         id="layer1-9"
         transform="matrix(6.6405245,0,0,6.6405245,841.91346,-712.43396)"><g
           id="g34765"
           transform="matrix(0.95237714,0,0,0.95237714,28.613371,170.04567)"
           style="stroke-width:6.97257"><path
             d="m 48.125,35.317 h -2.45 V 24.564 h 2.45 v 4.357 h 5.452 v -4.357 h 2.45 v 10.752 h -2.45 v -4.5 H 48.125 Z M 60.47,31.003 c 0,1.902 0.6,2.694 2.626,2.694 2.026,0 2.6,-0.8 2.6,-2.694 v -6.44 h 2.448 v 6.5 c 0.126,1.013 -0.115,2.037 -0.68,2.887 -0.96,1.052 -2.353,1.485 -4.378,1.485 -2.025,0 -3.436,-0.433 -4.392,-1.485 -0.536,-0.578 -0.668,-1.525 -0.668,-2.887 v -6.5 h 2.433 z m 15.683,-6.44 4.96,10.753 H 78.4 l -1.07,-2.562 h -5.06 l -1.037,2.562 H 68.63 l 4.925,-10.753 z m -3.097,6.276 h 3.47 L 74.759,26.707 Z M 97.7,24.564 94.1,35.316 h -3 L 88.63,27.3 86.46,35.327 H 83.475 L 79.598,24.575 h 2.63 l 2.7,8.266 2.27,-8.266 h 2.887 l 2.608,8.266 2.513,-8.266 z m 3.305,4.372 h 6.777 V 30.8 h -6.8 c 0.013,1.932 0.84,2.634 2.77,2.634 h 4.02 v 1.873 h -4.134 c -1.284,0.12 -2.57,-0.213 -3.632,-0.943 a 4.9,4.9 0 0 1 -1.782,-4.238 c 0,-3.8 1.735,-5.57 5.48,-5.57 h 4.067 v 1.874 h -4.02 c -1.764,-0.001 -2.655,0.806 -2.755,2.498 m 8.944,-4.364 h 2.56 v 10.753 h -2.56 z"
             fill="#0a0808"
             id="path34753"
             style="stroke-width:7.32123" /><path
             d="m 21.883,37.048 c 0.036,-0.03 0.047,-0.08 0.028,-0.123 A 76.28,76.28 0 0 0 12.616,21.847 c 0,0 -2.92,2.77 -2.713,5.55 a 4.91,4.91 0 0 0 1.693,3.346 c 2.547,2.483 8.715,5.617 10.15,6.326 0.045,0.025 0.102,0.016 0.138,-0.02 m -0.954,2.124 a 0.14,0.14 0 0 0 -0.132,-0.094 v -0.002 l -10.27,0.358 c 1.113,1.986 3,3.528 4.943,3.055 1.348,-0.337 4.404,-2.468 5.4,-3.187 V 39.3 c 0.077,-0.07 0.05,-0.126 0.05,-0.126 m 0.164,-0.924 c 0.05,-0.08 -0.04,-0.15 -0.04,-0.15 l 10e-4,-0.004 C 16.546,35.056 7.794,30.383 7.794,30.383 a 6.08,6.08 0 0 0 3.517,7.51 6.28,6.28 0 0 0 1.964,0.432 c 0.154,0.03 6.108,0.003 7.702,-0.004 0.045,-0.005 0.085,-0.032 0.106,-0.072 m 0.684,-20.836 c -0.448,0.04 -1.654,0.314 -1.654,0.314 -1.593,0.406 -2.863,1.605 -3.362,3.17 a 6.28,6.28 0 0 0 0.014,3.257 c 0.907,4.026 5.374,10.644 6.332,12.032 0.068,0.068 0.124,0.043 0.124,0.043 0.058,-0.014 0.098,-0.068 0.095,-0.128 h 0.002 c 1.476,-14.773 -1.55,-18.7 -1.55,-18.7 m 3.397,18.824 c 0.056,0.023 0.12,-0.001 0.148,-0.055 h 0.001 c 0.986,-1.426 5.425,-8.007 6.327,-12.016 0.27,-1.068 0.276,-2.186 0.017,-3.257 a 4.77,4.77 0 0 0 -3.394,-3.17 c 0,0 -0.785,-0.198 -1.617,-0.315 0,0 -3.044,3.918 -1.564,18.7 h 0.002 c 10e-4,0.05 0.032,0.095 0.08,0.112 m 2.43,2.864 c 0,0 -0.1,0.012 -0.116,0.078 -0.012,0.05 0.003,0.104 0.04,0.14 0.98,0.705 3.96,2.8 5.4,3.193 0,0 2.655,0.904 4.96,-3.056 l -10.282,-0.36 z m 13.02,-8.728 c 0,0 -8.73,4.684 -13.245,7.73 a 0.14,0.14 0 0 0 -0.051,0.15 c 0,0 0.043,0.077 0.106,0.077 v 0.002 l 7.886,-0.02 a 6.14,6.14 0 0 0 1.768,-0.408 c 1.475,-0.578 2.662,-1.714 3.306,-3.162 a 6.21,6.21 0 0 0 0.23,-4.37 m -14.07,6.7 c 0.04,0.03 0.095,0.034 0.14,0.01 1.47,-0.734 7.593,-3.847 10.128,-6.317 a 4.95,4.95 0 0 0 1.692,-3.361 c 0.185,-2.875 -2.7,-5.535 -2.7,-5.535 a 76.21,76.21 0 0 0 -9.28,15.038 h 0.003 c -0.027,0.055 -0.016,0.12 0.028,0.164"
             fill="#e12229"
             id="path34755"
             style="stroke-width:7.32123" /></g></g></g></g><style
     type="text/css"
     id="style33823">
	.st0{fill:#97741F;}
	.st1{fill:#004C25;}
</style></svg>
