<?xml version="1.0" encoding="UTF-8" standalone="no"?>
<!-- Created with Inkscape (http://www.inkscape.org/) -->

<svg
   width="100"
   height="100"
   viewBox="0 0 26.458333 26.458331"
   version="1.1"
   id="svg32214"
   xml:space="preserve"
   inkscape:export-filename="versage.png"
   inkscape:export-xdpi="94.080002"
   inkscape:export-ydpi="94.080002"
   inkscape:version="1.2.2 (732a01da63, 2022-12-09)"
   sodipodi:docname="luigi.svg"
   xmlns:inkscape="http://www.inkscape.org/namespaces/inkscape"
   xmlns:sodipodi="http://sodipodi.sourceforge.net/DTD/sodipodi-0.dtd"
   xmlns="http://www.w3.org/2000/svg"
   xmlns:svg="http://www.w3.org/2000/svg"><sodipodi:namedview
     id="namedview32216"
     pagecolor="#ffffff"
     bordercolor="#000000"
     borderopacity="0.25"
     inkscape:showpageshadow="2"
     inkscape:pageopacity="0.0"
     inkscape:pagecheckerboard="0"
     inkscape:deskcolor="#d1d1d1"
     inkscape:document-units="mm"
     showgrid="false"
     inkscape:zoom="4.3439847"
     inkscape:cx="80.456084"
     inkscape:cy="40.05539"
     inkscape:window-width="1920"
     inkscape:window-height="1057"
     inkscape:window-x="-8"
     inkscape:window-y="-8"
     inkscape:window-maximized="1"
     inkscape:current-layer="layer1-9" /><defs
     id="defs32211"><pattern
       id="EMFhbasepattern"
       patternUnits="userSpaceOnUse"
       width="6"
       height="6"
       x="0"
       y="0" /><pattern
       id="EMFhbasepattern-9"
       patternUnits="userSpaceOnUse"
       width="6"
       height="6"
       x="0"
       y="0" /><pattern
       id="EMFhbasepattern-7"
       patternUnits="userSpaceOnUse"
       width="6"
       height="6"
       x="0"
       y="0" /><clipPath
       clipPathUnits="userSpaceOnUse"
       id="clipPath33521"><rect
         style="fill:none;stroke:#00ff00;stroke-width:0.105833"
         id="rect33523"
         width="75.202255"
         height="106.69482"
         x="-81.052208"
         y="126.72875" /></clipPath><inkscape:perspective
       sodipodi:type="inkscape:persp3d"
       inkscape:vp_x="0 : 539.41023 : 1"
       inkscape:vp_y="0 : 999.99996 : 0"
       inkscape:vp_z="744.09447 : 539.41023 : 1"
       inkscape:persp3d-origin="372.04724 : 364.01654 : 1"
       id="perspective10" /><inkscape:perspective
       id="perspective2399"
       inkscape:persp3d-origin="358.69965 : 174.44867 : 1"
       inkscape:vp_z="717.39928 : 255.05843 : 1"
       inkscape:vp_y="0 : 999.99996 : 0"
       inkscape:vp_x="0 : 255.05843 : 1"
       sodipodi:type="inkscape:persp3d" /><clipPath
       id="clipPath831"><path
         d="M 0,595.28 H 841.89 V 0 H 0 Z"
         id="path33767" /></clipPath><style
       id="style3233">.cls-1{fill:#fff}</style><inkscape:perspective
       sodipodi:type="inkscape:persp3d"
       inkscape:vp_x="0 : 539.41023 : 1"
       inkscape:vp_y="0 : 999.99996 : 0"
       inkscape:vp_z="744.09447 : 539.41023 : 1"
       inkscape:persp3d-origin="372.04724 : 364.01654 : 1"
       id="perspective10-5" /><inkscape:perspective
       id="perspective2390"
       inkscape:persp3d-origin="372.04724 : 364.01654 : 1"
       inkscape:vp_z="744.09447 : 539.41023 : 1"
       inkscape:vp_y="0 : 999.99996 : 0"
       inkscape:vp_x="0 : 539.41023 : 1"
       sodipodi:type="inkscape:persp3d" /><inkscape:perspective
       id="perspective2405"
       inkscape:persp3d-origin="372.04724 : 364.01654 : 1"
       inkscape:vp_z="744.09447 : 539.41023 : 1"
       inkscape:vp_y="0 : 999.99996 : 0"
       inkscape:vp_x="0 : 539.41023 : 1"
       sodipodi:type="inkscape:persp3d" /><inkscape:perspective
       sodipodi:type="inkscape:persp3d"
       inkscape:vp_x="0 : 526.18109 : 1"
       inkscape:vp_y="0 : 1000 : 0"
       inkscape:vp_z="744.09448 : 526.18109 : 1"
       inkscape:persp3d-origin="372.04724 : 350.78739 : 1"
       id="perspective10-7" /><inkscape:perspective
       id="perspective2390-6"
       inkscape:persp3d-origin="372.04724 : 350.78739 : 1"
       inkscape:vp_z="744.09448 : 526.18109 : 1"
       inkscape:vp_y="0 : 1000 : 0"
       inkscape:vp_x="0 : 526.18109 : 1"
       sodipodi:type="inkscape:persp3d" /><inkscape:perspective
       id="perspective2405-7"
       inkscape:persp3d-origin="372.04724 : 350.78739 : 1"
       inkscape:vp_z="744.09448 : 526.18109 : 1"
       inkscape:vp_y="0 : 1000 : 0"
       inkscape:vp_x="0 : 526.18109 : 1"
       sodipodi:type="inkscape:persp3d" /></defs><g
     inkscape:label="Layer 1"
     inkscape:groupmode="layer"
     id="layer1"
     transform="translate(-40.2871,-85.425155)"><g
       id="g8882"
       transform="matrix(0.03984374,0,0,0.03984374,-2.7182696,74.491022)"
       style="stroke-width:6.64052"><g
         id="layer1-9"
         transform="matrix(6.6405245,0,0,6.6405245,841.91346,-712.43396)"><path
           style="fill:#b19b72;fill-opacity:1;stroke-width:6.64055"
           d="m 38.875897,245.54919 c 1.13681,-2.19835 2.032807,-2.674 5.705166,-3.02869 6.364154,-0.61468 10.974792,-3.1153 12.885342,-6.98849 0.890955,-1.80618 3.572121,-8.45272 5.958131,-14.77004 L 67.762745,209.27592 56.986546,186.32758 C 51.05963,173.706 45.08667,162.23706 43.713291,160.84106 c -1.373373,-1.396 -3.725649,-2.80804 -5.227273,-3.13784 -2.274131,-0.49947 -2.73022,-1.04319 -2.73022,-3.25469 v -2.65505 h 14.545456 14.545455 v 2.31633 c 0,1.31888 -0.968594,3.17838 -2.249285,4.31819 l -2.249283,2.00185 6.930406,14.77272 c 3.811721,8.125 7.176173,14.77032 7.476548,14.76738 0.97554,-0.01 6.581557,-16.36725 6.286841,-18.3442 -0.238829,-1.60191 -1.169619,-2.49957 -4.236284,-4.08544 -0.172586,-0.0893 -0.03775,-1.4188 0.299502,-2.95455 l 0.613293,-2.79227 h 15.488344 15.488329 l -0.54816,2.04545 c -0.30148,1.12499 -0.55373,2.29998 -0.56058,2.61108 -0.007,0.3111 -1.59973,0.81946 -3.5398,1.12968 -1.94008,0.31023 -4.386137,1.28297 -5.435718,2.16164 -1.188279,0.99482 -4.499837,8.68307 -8.776789,20.37664 l -6.868485,18.77902 3.753782,8.03915 c 3.085452,6.60783 3.88358,7.71544 4.482792,6.22096 0.400951,-0.99999 6.498629,-15.50154 13.550398,-32.22563 7.05178,-16.72408 12.82141,-31.13015 12.82141,-32.01345 0,-1.81493 -2.58784,-3.48818 -5.39478,-3.48818 -1.54016,0 -1.87794,-0.57232 -1.87794,-3.18183 v -3.18181 h 12.72727 12.72728 v 3.18181 c 0,2.64141 -0.32919,3.18183 -1.93816,3.18183 -1.06598,0 -3.27589,0.82677 -4.91091,1.83726 -3.37105,2.08343 -3.41553,2.17858 -23.68233,50.66273 l -12.635263,30.22728 h -5.50002 -5.50001 l -2.505345,-5.10829 c -1.377929,-2.80956 -2.655766,-4.95729 -2.839639,-4.77273 -0.524914,0.52691 -5.033777,12.73163 -5.033777,13.62562 0,1.1122 36.972464,1.00036 41.020614,-0.12408 4.62837,-1.28563 10.70295,-6.95472 14.43804,-13.47432 2.85402,-4.98169 3.47865,-5.54943 6.13225,-5.57371 1.62499,-0.0149 2.95455,0.19636 2.95455,0.46941 0,0.27306 -2.5078,6.00033 -5.5729,12.72728 l -5.57289,12.2308 H 81.068651 37.52729 Z"
           id="path2396" /></g></g></g><style
     type="text/css"
     id="style33823">
	.st0{fill:#97741F;}
	.st1{fill:#004C25;}
</style></svg>
