<?xml version="1.0" encoding="UTF-8" standalone="no"?>
<!-- Created with Inkscape (http://www.inkscape.org/) -->

<svg
   width="100"
   height="100"
   viewBox="0 0 26.458333 26.458331"
   version="1.1"
   id="svg32214"
   xml:space="preserve"
   inkscape:export-filename="versage.png"
   inkscape:export-xdpi="94.080002"
   inkscape:export-ydpi="94.080002"
   inkscape:version="1.2.2 (732a01da63, 2022-12-09)"
   sodipodi:docname="msi.svg"
   xmlns:inkscape="http://www.inkscape.org/namespaces/inkscape"
   xmlns:sodipodi="http://sodipodi.sourceforge.net/DTD/sodipodi-0.dtd"
   xmlns="http://www.w3.org/2000/svg"
   xmlns:svg="http://www.w3.org/2000/svg"><sodipodi:namedview
     id="namedview32216"
     pagecolor="#ffffff"
     bordercolor="#000000"
     borderopacity="0.25"
     inkscape:showpageshadow="2"
     inkscape:pageopacity="0.0"
     inkscape:pagecheckerboard="0"
     inkscape:deskcolor="#d1d1d1"
     inkscape:document-units="mm"
     showgrid="false"
     inkscape:zoom="1.0859962"
     inkscape:cx="190.148"
     inkscape:cy="254.14454"
     inkscape:window-width="1920"
     inkscape:window-height="1057"
     inkscape:window-x="-8"
     inkscape:window-y="-8"
     inkscape:window-maximized="1"
     inkscape:current-layer="g34857" /><defs
     id="defs32211"><pattern
       id="EMFhbasepattern"
       patternUnits="userSpaceOnUse"
       width="6"
       height="6"
       x="0"
       y="0" /><pattern
       id="EMFhbasepattern-9"
       patternUnits="userSpaceOnUse"
       width="6"
       height="6"
       x="0"
       y="0" /><pattern
       id="EMFhbasepattern-7"
       patternUnits="userSpaceOnUse"
       width="6"
       height="6"
       x="0"
       y="0" /><clipPath
       clipPathUnits="userSpaceOnUse"
       id="clipPath33521"><rect
         style="fill:none;stroke:#00ff00;stroke-width:0.105833"
         id="rect33523"
         width="75.202255"
         height="106.69482"
         x="-81.052208"
         y="126.72875" /></clipPath><inkscape:perspective
       sodipodi:type="inkscape:persp3d"
       inkscape:vp_x="0 : 539.41023 : 1"
       inkscape:vp_y="0 : 999.99996 : 0"
       inkscape:vp_z="744.09447 : 539.41023 : 1"
       inkscape:persp3d-origin="372.04724 : 364.01654 : 1"
       id="perspective10" /><inkscape:perspective
       id="perspective2399"
       inkscape:persp3d-origin="358.69965 : 174.44867 : 1"
       inkscape:vp_z="717.39928 : 255.05843 : 1"
       inkscape:vp_y="0 : 999.99996 : 0"
       inkscape:vp_x="0 : 255.05843 : 1"
       sodipodi:type="inkscape:persp3d" /><clipPath
       id="clipPath831"><path
         d="M 0,595.28 H 841.89 V 0 H 0 Z"
         id="path33767" /></clipPath><style
       id="style3233">.cls-1{fill:#fff}</style><inkscape:perspective
       sodipodi:type="inkscape:persp3d"
       inkscape:vp_x="0 : 539.41023 : 1"
       inkscape:vp_y="0 : 999.99996 : 0"
       inkscape:vp_z="744.09447 : 539.41023 : 1"
       inkscape:persp3d-origin="372.04724 : 364.01654 : 1"
       id="perspective10-5" /><inkscape:perspective
       id="perspective2390"
       inkscape:persp3d-origin="372.04724 : 364.01654 : 1"
       inkscape:vp_z="744.09447 : 539.41023 : 1"
       inkscape:vp_y="0 : 999.99996 : 0"
       inkscape:vp_x="0 : 539.41023 : 1"
       sodipodi:type="inkscape:persp3d" /><inkscape:perspective
       id="perspective2405"
       inkscape:persp3d-origin="372.04724 : 364.01654 : 1"
       inkscape:vp_z="744.09447 : 539.41023 : 1"
       inkscape:vp_y="0 : 999.99996 : 0"
       inkscape:vp_x="0 : 539.41023 : 1"
       sodipodi:type="inkscape:persp3d" /><inkscape:perspective
       sodipodi:type="inkscape:persp3d"
       inkscape:vp_x="0 : 526.18109 : 1"
       inkscape:vp_y="0 : 1000 : 0"
       inkscape:vp_z="744.09448 : 526.18109 : 1"
       inkscape:persp3d-origin="372.04724 : 350.78739 : 1"
       id="perspective10-7" /><inkscape:perspective
       id="perspective2390-6"
       inkscape:persp3d-origin="372.04724 : 350.78739 : 1"
       inkscape:vp_z="744.09448 : 526.18109 : 1"
       inkscape:vp_y="0 : 1000 : 0"
       inkscape:vp_x="0 : 526.18109 : 1"
       sodipodi:type="inkscape:persp3d" /><inkscape:perspective
       id="perspective2405-7"
       inkscape:persp3d-origin="372.04724 : 350.78739 : 1"
       inkscape:vp_z="744.09448 : 526.18109 : 1"
       inkscape:vp_y="0 : 1000 : 0"
       inkscape:vp_x="0 : 526.18109 : 1"
       sodipodi:type="inkscape:persp3d" /><style
       id="style3233-9">.cls-1{fill:#fff}</style><clipPath
       id="clipPath831-9"><path
         d="M 0,595.28 H 841.89 V 0 H 0 Z"
         id="path34476" /></clipPath><inkscape:perspective
       sodipodi:type="inkscape:persp3d"
       inkscape:vp_x="0 : 526.18109 : 1"
       inkscape:vp_y="0 : 1000 : 0"
       inkscape:vp_z="744.09448 : 526.18109 : 1"
       inkscape:persp3d-origin="372.04724 : 350.78739 : 1"
       id="perspective10-55" /><inkscape:perspective
       id="perspective2399-9"
       inkscape:persp3d-origin="358.69965 : 161.21951 : 1"
       inkscape:vp_z="717.39929 : 241.82927 : 1"
       inkscape:vp_y="0 : 1000 : 0"
       inkscape:vp_x="0 : 241.82927 : 1"
       sodipodi:type="inkscape:persp3d" /><style
       id="style34823">.cls-1,.cls-2,.cls-3,.cls-4{fill-rule:evenodd;}.cls-2{fill:#8a8a8b;}.cls-3{fill:#ed1c24;}.cls-4{fill:#fff;}</style></defs><g
     inkscape:label="Layer 1"
     inkscape:groupmode="layer"
     id="layer1"
     transform="translate(-40.2871,-85.425155)"><g
       id="g8882"
       transform="matrix(0.03984374,0,0,0.03984374,-2.7182696,74.491022)"
       style="stroke-width:6.64052"><g
         id="layer1-9"
         transform="matrix(6.6405245,0,0,6.6405245,841.91346,-712.43396)"><g
           id="g34857"
           transform="translate(-270.35038,304.28026)"><g
             id="g34867"
             transform="matrix(0.15673862,0,0,0.15673862,306.10694,-121.82522)"
             style="stroke-width:42.3668"><path
               class="cls-1"
               d="m 778.93,554.08 30.26,-83.44 A 261.18,261.18 0 0 0 764,475.19 l -28.6,78.89 z m -5.16,-106 -5.8,16 a 263.32,263.32 0 0 1 45.22,-4.53 l 5.81,-16 a 262.38,262.38 0 0 0 -45.23,4.53 z"
               transform="translate(-181,-396.92)"
               id="path34829"
               style="fill:#000000;stroke-width:42.3668" /><path
               class="cls-1"
               d="m 616,534.27 a 232.83,232.83 0 0 0 42,3.78 c 9.43,0 25.13,-1.11 26.53,-13.26 0.56,-4.75 -4.6,-8 -12.82,-12.53 -9.42,-5.2 -16.66,-8 -24.84,-13.44 -8.18,-5.44 -11.71,-14.08 -9,-23.2 8.26,-27.35 48.22,-32 71.84,-32 a 250.13,250.13 0 0 1 47.48,4.53 l -5.54,15.26 c -14.2,-2.59 -66.06,-11.39 -68.47,9.49 -0.55,4.76 4.26,7.84 12.5,12.38 9.4,5.19 17,8.11 25.17,13.58 8.17,5.47 11.7,14.09 9,23.22 -8.28,27.33 -48.22,32 -71.84,32 a 249.71,249.71 0 0 1 -47.48,-4.55 z"
               transform="translate(-181,-396.92)"
               id="path34831"
               style="fill:#000000;stroke-width:42.3668" /><path
               class="cls-1"
               d="m 550.35,554.08 25.23,-69.62 c 9.92,-27.36 -37.12,-16.45 -48.3,14.36 l -20,55.26 h -43.61 l 25.23,-69.62 c 9.92,-27.37 -37.14,-16.44 -48.31,14.36 l -20,55.26 H 377 l 40.07,-110.5 c 13.87,0 21.38,3.19 27.69,9.39 a 17.46,17.46 0 0 1 4.52,8.34 145.62,145.62 0 0 1 20.27,-10.55 c 9.06,-3.55 20.32,-7.19 34.2,-7.18 13.88,0.01 21.38,3.19 27.68,9.39 a 17.49,17.49 0 0 1 4.54,8.34 145.06,145.06 0 0 1 20.26,-10.55 c 9.06,-3.55 20.32,-7.19 34.2,-7.18 13.88,0.01 21.38,3.19 27.68,9.39 6.3,6.2 6.16,17.48 3.88,23.75 l -28.05,77.36 z"
               transform="translate(-181,-396.92)"
               id="path34833"
               style="fill:#000000;stroke-width:42.3668" /><path
               class="cls-2"
               d="m 183.5,430.67 c 24.36,-15.22 54.21,-28.94 82.7,-33.62 l 0.86,-0.13 0.83,0.13 c 28.5,4.68 58.34,18.4 82.71,33.62 l 2.47,1.55 v 2.92 c 0.2,36.85 -5.76,76.17 -22.67,109.29 -13.23,25.91 -33.6,48.34 -61.65,58.05 l -1.71,0.6 -1.73,-0.6 C 237.25,592.77 216.88,570.34 203.65,544.43 186.76,511.31 180.8,472 181,435.14 v -2.92 l 2.48,-1.55 z"
               transform="translate(-181,-396.92)"
               id="path34835"
               style="stroke-width:42.3668" /><path
               class="cls-3"
               d="m 186.3,435.17 c 25.51,-15.94 54.75,-28.61 80.73,-32.88 v 0 c 26,4.27 55.22,16.94 80.73,32.88 0.47,85.23 -32.44,145.56 -80.73,162.3 v 0 C 218.75,580.73 185.83,520.4 186.3,435.17 Z"
               id="path34837"
               transform="translate(-181,-396.92)"
               style="stroke-width:42.3668" /><path
               class="cls-1"
               d="m 290.61,468.25 c -10.62,12.3 -27.52,14.05 -39.18,14.57 -1.33,0.14 -4,0.3 -4.64,1.24 a 1.55,1.55 0 0 0 0.55,1.91 c 13.19,9.32 30.38,2.51 39.42,-2 -10.44,9.36 -28,11 -43,5.52 -1.92,-0.66 -3.14,-0.85 -3.77,-0.18 a 2.05,2.05 0 0 0 -0.07,2.39 c 4.21,7.86 7.26,13.93 18,17.33 -12.45,-0.73 -20.25,-12.56 -22.09,-18.88 -0.17,10.59 9,17.87 12.83,22.07 -4.95,0.18 -9.78,0.57 -11.89,4.28 -1.49,2.34 -1.44,5.75 -3.5,8.84 -5.76,-10.76 -10.34,-25.8 -6,-38.94 3.24,-9.9 9,-19.22 22.53,-25 a 104.15,104.15 0 0 0 -9.3,11.8 c -2.31,4.31 0.53,5.85 3.73,0.3 4.47,10.79 36.52,4.32 44.93,-6 l 3.06,-1.28 -1.52,2 z m -20.27,93.32 a 1.72,1.72 0 0 1 1.9,-0.61 1.93,1.93 0 0 1 1.14,3 c -1,1.35 -2.63,2.32 -3.71,3.62 a 6.55,6.55 0 0 0 -1,1.89 v 0 c -0.31,-2.66 -0.32,-5.56 1.66,-7.86 z m -15,-4.68 a 2.4,2.4 0 0 1 2.88,0 2.84,2.84 0 0 1 0.5,2.93 13.06,13.06 0 0 1 -2.82,2.18 c -1.61,1 -3.28,2.18 -3.93,3.79 a 14.7,14.7 0 0 1 1.12,-5.82 7.65,7.65 0 0 1 2.29,-3.1 z M 291,555 a 1.65,1.65 0 0 1 1.51,0.17 2.13,2.13 0 0 1 0.91,1.43 20,20 0 0 0 0.75,3.8 15.21,15.21 0 0 0 0.79,1.49 8,8 0 0 1 -3,-2 6.44,6.44 0 0 1 -1.88,-3 A 1.63,1.63 0 0 1 291,555 Z m -46.64,-7.13 a 2.29,2.29 0 0 1 2.43,0.53 c 0.66,0.68 0.38,1.58 0.32,2.36 0,0.54 -0.53,1 -1.09,1.23 -1.53,0.72 -3.28,1.39 -4.79,2.14 a 6.63,6.63 0 0 0 -2.44,2 13,13 0 0 1 1.36,-4 9.48,9.48 0 0 1 4.21,-4.32 z m 63.34,-10.51 c -0.14,-0.66 0.5,-1.21 1.16,-1.53 a 7.64,7.64 0 0 1 3.33,1.14 6.2,6.2 0 0 0 2,0.43 8.13,8.13 0 0 1 -4.28,1.28 c -1,0 -2.05,-0.52 -2.19,-1.32 z m -72.62,-5.7 a 1.94,1.94 0 0 1 1.42,0 2.12,2.12 0 0 1 1.64,2.12 c -0.07,0.95 0.07,2.12 -1,2.74 -2,1.18 -4.53,1.85 -6.37,3.25 a 6.68,6.68 0 0 0 -1.6,1.63 15.18,15.18 0 0 1 3.14,-7.55 9.09,9.09 0 0 1 2.82,-2.21 z m 26.29,-10.31 a 15.4,15.4 0 0 1 4.71,-1 c -1.35,0.47 -2.86,1 -3.63,2 -0.3,0.44 -0.61,1.09 -0.08,1.51 0.53,0.42 1.39,0.21 2,0.47 0.61,0.26 0.4,1.09 0.3,1.61 a 15.56,15.56 0 0 1 -2.37,4.82 1.61,1.61 0 0 0 -0.37,1.15 c 0.48,0.06 0.82,-0.31 1.17,-0.51 a 20,20 0 0 0 4,-3.19 c 0.46,-0.58 1.17,-1.1 1.25,-1.82 0.08,-0.72 -0.93,-0.74 -1,-1.26 a 4.93,4.93 0 0 1 2.56,-1.81 c 2.27,-0.89 5.57,-0.68 7,1.14 a 17.21,17.21 0 0 0 -3.43,-0.94 c -0.63,0 -1.34,0.23 -1.46,0.75 -0.12,0.52 -0.06,1.33 -0.22,2 a 8.76,8.76 0 0 1 -4.82,5.77 9.65,9.65 0 0 0 -2.59,1.29 2.21,2.21 0 0 0 -0.82,1.6 5.93,5.93 0 0 0 1.8,0.24 9.05,9.05 0 0 0 4,-0.28 c 1.18,-0.46 1.65,-1.58 2.88,-2 3.15,-1.15 7.2,0.23 8.57,2.66 -1,-0.47 -1.82,-1.12 -2.87,-1.51 a 3.71,3.71 0 0 0 -3.3,0.41 8.09,8.09 0 0 0 -2.12,2.46 1.31,1.31 0 0 1 -0.93,0.73 c -0.83,0 -1.59,-0.55 -2.45,-0.33 -1.17,0.31 -2.22,0.87 -3.41,1.16 a 6,6 0 0 1 -2.49,0 26.3,26.3 0 0 0 -4.35,-0.7 2.47,2.47 0 0 0 -1.89,0.54 3.9,3.9 0 0 0 -0.6,2.27 33.32,33.32 0 0 1 -1.27,-5.67 c -0.15,-2.39 -0.73,-4.79 -0.24,-7.18 a 6.14,6.14 0 0 1 1,3.25 1.36,1.36 0 0 0 1.13,1.24 2.87,2.87 0 0 0 2.12,-1.36 5.86,5.86 0 0 0 1.46,-3.88 c 0,-0.63 -1,-0.64 -1.34,-1.09 a 2.38,2.38 0 0 1 -0.34,-2.56 4.08,4.08 0 0 1 2.35,-2 z m 54.73,-3.12 c 0,-0.49 0.75,-0.63 1.27,-0.61 a 24.2,24.2 0 0 0 2.95,0 5.55,5.55 0 0 1 -2.91,1.68 c -0.78,0.14 -1.49,-0.44 -1.31,-1 z m 0.72,-12.16 a 12.29,12.29 0 0 0 2.11,-1 3.24,3.24 0 0 1 -1.78,2.1 0.59,0.59 0 0 1 -0.33,-1.13 z m -35.16,-12.58 c 1,3.74 2.33,7.2 6.71,8.59 4.08,1.29 10,0.38 14.47,0 3.71,-0.12 7.16,-0.81 9.91,1.11 a 8,8 0 0 1 2.62,3.44 34.93,34.93 0 0 1 1.72,3.93 4.51,4.51 0 0 1 -0.49,3.71 11.06,11.06 0 0 0 -1.93,4.9 c -0.19,1.67 -0.54,3.33 -0.84,5 a 17.78,17.78 0 0 1 -1.58,5 c -0.8,1.46 -2.26,2.56 -3.22,3.94 a 26.05,26.05 0 0 0 -3.35,7.21 c -0.67,2 -0.93,4 -1.49,5.91 a 6.58,6.58 0 0 1 -3.31,4.31 c -2.72,1.44 -6.13,1.8 -9,2.93 -2.7,1 -4.5,2.77 -6.63,4.38 -1.68,1.28 -3.11,2.73 -5.54,3.08 -4.47,0.68 -5.6,-2.87 -13.67,0 a 3.63,3.63 0 0 1 -3.06,-0.14 c -1.93,-0.94 -2.15,-3.57 -4.3,-4.71 -2.15,-1.14 -4.77,-1.06 -7.16,-1.52 A 3.55,3.55 0 0 1 249,552.92 c -0.69,-1.4 -0.71,-2.94 -1.31,-4.36 -1.56,-3.18 -6.69,-4.21 -8.16,-7.13 -1.47,-2.92 0.52,-4.66 0.53,-7.12 -0.15,-3.28 -2.36,-4.93 -6.71,-5.08 a 26,26 0 0 0 4.11,-10.06 c 0.55,-1.31 0.88,-2.78 2.29,-3.69 a 17.64,17.64 0 0 1 4.71,-1.57 9.74,9.74 0 0 1 5.51,0.26 c 4.1,2.25 3.16,8.18 1,10.61 -2.95,3.34 -10.35,2.68 -9.07,-2.56 1.52,1.3 3,3.25 5.12,0.93 a 1,1 0 0 0 0.24,-0.81 3.21,3.21 0 0 0 -2.11,-2.11 2.85,2.85 0 0 0 -1.91,-0.18 7.1,7.1 0 0 0 -4.37,3.57 c -1.66,3.27 1.93,5.89 6.08,5.26 3.86,-0.76 5.64,-2.33 8.14,-4.39 a 70.59,70.59 0 0 0 0.35,11.57 32.19,32.19 0 0 0 2.93,9.34 13.07,13.07 0 0 0 6.65,5.9 c 3.22,1.29 6.76,1.32 10.29,1.3 6,0 14.85,-2.58 19.71,-5.1 7.77,-4.11 8.88,-7.4 12.69,-13.84 a 72.83,72.83 0 0 0 4.43,-9.91 28.94,28.94 0 0 0 2.09,-10.09 8.83,8.83 0 0 0 -1.87,-5.88 c -3.4,-4.3 -10.65,-2.47 -17.35,-2.67 -0.52,1.06 -0.92,2.25 0,3.26 1.64,1.76 5.62,1.49 8.28,1.7 -11.45,4.67 -21.71,-0.42 -24.55,-9.42 2.38,3 6.24,9.06 12.08,7.26 2.13,-0.64 1.15,-2.15 0.47,-3.31 -0.17,-0.4 -0.91,-0.41 -1.34,-0.56 a 8.67,8.67 0 0 1 -6.21,-10.46 z m -36.77,-1.93 c 0.86,0.67 1.15,1.58 2,2.25 8.11,6.19 15.27,6.19 25.61,6.53 -9.16,2.25 -20.84,0.87 -27.37,-5.31 a 9.66,9.66 0 0 1 -2.08,-2.65 c -0.47,-1.43 0.8,-1.59 1.83,-0.78 z m 38.36,-1.7 c 8.29,-0.45 16.76,2.69 19.42,10.73 -1.1,-1.2 -5.61,-2.26 -7.3,-1.85 a 1.15,1.15 0 0 0 -1,0.76 c -0.18,0.72 0.24,1.28 0.52,1.93 -4.55,0.52 -7.85,-1 -9.89,-3.91 a 14.39,14.39 0 0 0 3.21,1.3 6.41,6.41 0 0 0 5.75,-1.93 c 0.81,-0.88 0.29,-2 -0.66,-2.68 -3.47,-2.57 -6.41,-2.87 -10.08,-4.35 z m 8.47,-15 c 1.08,-0.8 2,-1.71 3,-2.56 -4.62,7.14 -15.89,12.7 -24.72,14.3 -4.48,0.89 -14.28,2.06 -18.4,-0.2 -0.45,-0.24 -0.91,-0.78 -0.49,-1.18 a 4.62,4.62 0 0 1 2.6,-0.41 c 1.74,0.17 3.59,0 5.35,0 a 79.17,79.17 0 0 0 13.58,-1.3 48,48 0 0 0 19.11,-8.53 z M 207.9,449.32 a 6.18,6.18 0 0 1 3.83,0.43 7.05,7.05 0 0 1 3,2.9 2,2 0 0 1 0.44,1.76 c -0.4,0.09 -0.82,0.13 -1.21,0.23 -0.34,0.33 -0.23,0.79 -0.23,1.18 a 18.45,18.45 0 0 0 2,5.71 1.81,1.81 0 0 0 0.64,0.68 c 0.35,-2.17 -0.21,-4.31 0.68,-6.43 0.16,-0.3 0.34,-0.7 0.8,-0.78 0.76,0 1.33,0.63 2.11,0.51 0.64,-0.3 0.54,-1 0.49,-1.5 -0.2,-1.29 -1.48,-2.2 -2.33,-3.25 a 10.74,10.74 0 0 1 4.44,4.42 2.55,2.55 0 0 1 -0.78,3.2 2.51,2.51 0 0 1 -1.82,0.21 c -1.37,1.32 -1.17,3 -0.84,4.61 0.11,0.39 0.2,1.07 0.9,1 1.44,-0.31 2.36,-1.29 3.57,-1.9 -2.76,3.43 -5.12,5.32 -7,9.52 a 8.41,8.41 0 0 0 0,-2.65 2.19,2.19 0 0 0 -1.2,-1.11 c -1.37,-0.67 -3,-1 -4.35,-1.67 -1.35,-0.67 -2.21,-2 -3.12,-3.08 -0.57,-0.7 -1.69,-0.32 -2.39,-0.88 a 9.26,9.26 0 0 1 -0.31,-2.09 c -0.21,-1.08 -0.27,-2.52 -1.47,-3.22 a 8.42,8.42 0 0 0 -4.29,-0.72 v 0 a 6.49,6.49 0 0 1 8,1.92 c 0.76,0.87 0.6,2 1.33,2.89 a 7.7,7.7 0 0 0 2.12,1.5 8.2,8.2 0 0 0 2.65,1.2 3.11,3.11 0 0 0 -0.71,-3 9,9 0 0 1 -2.17,-4.91 5.21,5.21 0 0 1 0.6,-3.46 c 0.29,-0.56 0.81,-1.21 0.34,-1.8 -0.83,-1 -2.46,-1.06 -3.76,-1.41 z m 51.28,-19.75 a 139.81,139.81 0 0 0 12.6,7.42 c -0.89,0.72 -1.94,1.8 -3.13,1.78 -2.61,-0.95 -8.27,-6.91 -9.47,-9.2 z m 5.42,-8.11 h 0.08 c 5.46,6.87 11.29,12.2 19.49,16.07 a 16.38,16.38 0 0 0 7,2 c 1.45,0.12 2.83,-0.86 4.27,-0.86 a 8.18,8.18 0 0 1 4.56,1.53 1.47,1.47 0 0 1 0.7,1 8.1,8.1 0 0 0 2.33,4.7 c 0.91,0.81 2.4,0.75 3.71,0.52 a 2.79,2.79 0 0 0 2,2.21 c 1.13,0.23 2.06,-0.93 3.27,-0.6 0.5,0.65 0.78,1.28 1.3,1.93 0.47,0.45 1.25,0.57 1.8,0.95 a 11,11 0 0 1 4.32,5 c -1.2,-1.3 -2.59,-2.9 -4.53,-3.56 0.08,2.81 -0.1,6.77 -2,8.26 -0.08,-1.81 0,-3.57 -1.06,-5.18 -1.65,1.2 -3.33,2.9 -5.49,3.3 0.83,-1 2.47,-2.14 1.94,-3.41 a 4.33,4.33 0 0 0 -3.39,-0.47 11.76,11.76 0 0 0 -4.81,2.57 24.2,24.2 0 0 0 -1.11,-2.79 c -1,0.17 -4.68,1.39 -3.64,3 1.59,2 4.14,1.2 5.66,1.49 a 4.12,4.12 0 0 1 2.25,2 c 0.09,-0.75 0.16,-1.5 0.27,-2.24 a 50.83,50.83 0 0 1 4.31,6 c 1.83,-0.81 2.2,-1.66 2.43,-4 a 6.32,6.32 0 0 1 0.84,3.49 3.61,3.61 0 0 0 1.16,-1.53 c 0.69,3.19 -0.07,8 -4.57,9.47 0.82,-2.13 1.14,-4 -1.73,-4 -2.26,0 -4.8,0.83 -7,1.1 0.87,-0.46 4.72,-2.63 4.05,-3.91 -0.29,-0.49 -0.84,-0.64 -1.43,-0.86 a 20.81,20.81 0 0 0 -4.29,-1.44 c -0.73,-0.11 -1.39,0.43 -2,0.69 -3.74,-1.78 -5.05,0.43 -7.71,0.82 a 7.18,7.18 0 0 1 -6.69,-3.12 c -3,-4.64 1.48,-7.47 5.28,-8.66 -5,-0.58 -7,1.12 -8.19,6.1 a 45.38,45.38 0 0 0 -6.54,-1.42 c -16.58,-2.42 -29.7,2.47 -37.31,10.56 -7.34,7.8 -11.9,19.87 -11.82,29.69 -0.22,10.72 3.06,17 8.61,26.37 -8,-6.59 -11.61,-14.89 -14,-20.42 -1,1.17 -0.69,2.62 -1,3.95 -4.65,-6.33 1.82,-22.29 4.88,-29.45 -2.43,1.13 -3.89,3.14 -5.65,4.8 -0.29,-9 7.7,-18.23 15.88,-25.61 a 24.54,24.54 0 0 0 -6.69,2.46 c 7.84,-8.27 22.16,-13 35.09,-13.52 -3,-1 -6.68,-1.23 -9.89,-1.77 10.1,-2.1 17,-2.18 23.84,-6.7 3.18,2.06 6.88,4.16 8.7,3.61 -5.46,-3.9 -15.45,-13 -17.39,-20.1 z M 294.44,443 a 17.57,17.57 0 0 0 2,2.33 3.66,3.66 0 0 0 3.59,1.14 7.43,7.43 0 0 0 -1,-2.19 1.41,1.41 0 0 0 -1,-0.49 c -1.24,-0.22 -2.43,-0.57 -3.67,-0.79 z"
               transform="translate(-181,-396.92)"
               id="path34839"
               style="stroke-width:42.3668" /><path
               class="cls-4"
               d="m 290.07,466.86 c -10.62,12.3 -27.52,14.06 -39.18,14.58 -1.33,0.14 -4,0.3 -4.64,1.24 a 1.55,1.55 0 0 0 0.54,1.91 c 13.2,9.31 30.39,2.5 39.43,-1.95 -10.44,9.36 -28,11 -43,5.51 -1.92,-0.65 -3.15,-0.85 -3.77,-0.17 a 2,2 0 0 0 -0.07,2.38 c 4.21,7.86 7.26,13.93 18,17.33 -12.45,-0.73 -20.25,-12.56 -22.09,-18.87 -0.17,10.58 9,17.87 12.83,22.07 -4.95,0.18 -9.78,0.57 -11.89,4.28 -1.49,2.34 -1.44,5.74 -3.5,8.84 -5.76,-10.77 -10.34,-25.8 -6,-38.94 3.24,-9.91 9,-19.22 22.53,-25 a 103.17,103.17 0 0 0 -9.3,11.79 c -2.31,4.32 0.53,5.85 3.73,0.31 4.47,10.79 36.52,4.32 44.93,-6 l 3.06,-1.28 -1.52,1.95 z m -20.27,93.33 a 1.7,1.7 0 0 1 1.9,-0.61 1.93,1.93 0 0 1 1.14,3 c -1,1.34 -2.63,2.31 -3.71,3.62 a 6.55,6.55 0 0 0 -1,1.89 v 0 c -0.32,-2.66 -0.32,-5.56 1.66,-7.86 z m -15,-4.68 a 2.37,2.37 0 0 1 2.88,0 2.84,2.84 0 0 1 0.5,2.93 13.2,13.2 0 0 1 -2.87,2.17 c -1.6,1 -3.27,2.18 -3.92,3.78 a 14.69,14.69 0 0 1 1.12,-5.81 7.52,7.52 0 0 1 2.29,-3.1 z m 35.61,-1.85 a 1.62,1.62 0 0 1 1.51,0.17 2.11,2.11 0 0 1 0.91,1.42 19.91,19.91 0 0 0 0.75,3.81 15.21,15.21 0 0 0 0.79,1.49 8,8 0 0 1 -3,-2 6.42,6.42 0 0 1 -1.88,-3.06 1.62,1.62 0 0 1 0.93,-1.81 z m -46.64,-7.13 a 2.27,2.27 0 0 1 2.43,0.53 c 0.66,0.67 0.38,1.58 0.32,2.36 0,0.53 -0.54,1 -1.09,1.23 -1.53,0.72 -3.28,1.38 -4.79,2.13 a 6.75,6.75 0 0 0 -2.44,2 13.26,13.26 0 0 1 1.36,-4 9.43,9.43 0 0 1 4.21,-4.32 z M 307.15,536 c -0.14,-0.67 0.5,-1.21 1.16,-1.53 a 7.64,7.64 0 0 1 3.33,1.14 5.93,5.93 0 0 0 2,0.42 8,8 0 0 1 -4.28,1.28 c -1,0 -2,-0.51 -2.19,-1.31 z m -72.62,-5.7 a 1.89,1.89 0 0 1 1.42,0 2.12,2.12 0 0 1 1.64,2.12 c -0.07,0.95 0.07,2.11 -1.05,2.74 -2,1.18 -4.53,1.84 -6.37,3.24 a 6.72,6.72 0 0 0 -1.6,1.64 15.1,15.1 0 0 1 3.14,-7.55 9,9 0 0 1 2.82,-2.21 z M 260.82,520 a 15.34,15.34 0 0 1 4.71,-1 c -1.35,0.46 -2.86,1 -3.63,2 -0.3,0.45 -0.61,1.1 -0.08,1.52 0.53,0.42 1.39,0.2 2,0.47 0.61,0.27 0.41,1.08 0.31,1.61 a 15.56,15.56 0 0 1 -2.37,4.82 1.59,1.59 0 0 0 -0.37,1.14 c 0.48,0.07 0.82,-0.3 1.17,-0.5 a 20,20 0 0 0 4,-3.2 c 0.46,-0.57 1.17,-1.09 1.25,-1.81 0.08,-0.72 -0.93,-0.74 -1,-1.26 a 4.84,4.84 0 0 1 2.55,-1.81 c 2.28,-0.89 5.58,-0.69 7,1.13 a 17.89,17.89 0 0 0 -3.43,-0.93 c -0.63,0 -1.34,0.23 -1.46,0.75 -0.12,0.52 -0.06,1.33 -0.22,2 a 8.76,8.76 0 0 1 -4.82,5.77 9.51,9.51 0 0 0 -2.59,1.29 2.19,2.19 0 0 0 -0.82,1.6 5.93,5.93 0 0 0 1.8,0.24 9.05,9.05 0 0 0 4.05,-0.29 c 1.18,-0.45 1.65,-1.57 2.88,-2 3.15,-1.16 7.2,0.23 8.57,2.66 a 31.25,31.25 0 0 0 -2.87,-1.51 3.71,3.71 0 0 0 -3.3,0.41 8.17,8.17 0 0 0 -2.12,2.45 1.3,1.3 0 0 1 -0.93,0.74 c -0.83,0 -1.59,-0.55 -2.45,-0.33 -1.17,0.31 -2.22,0.87 -3.41,1.16 a 5.81,5.81 0 0 1 -2.49,0 27.38,27.38 0 0 0 -4.35,-0.69 2.47,2.47 0 0 0 -1.89,0.54 3.89,3.89 0 0 0 -0.6,2.26 34,34 0 0 1 -1.27,-5.66 c -0.15,-2.4 -0.73,-4.8 -0.24,-7.18 a 6.11,6.11 0 0 1 1.05,3.24 1.37,1.37 0 0 0 1.13,1.25 c 1,0 1.6,-0.78 2.12,-1.36 a 5.86,5.86 0 0 0 1.46,-3.88 c 0,-0.63 -1,-0.65 -1.34,-1.1 a 2.38,2.38 0 0 1 -0.34,-2.56 4.1,4.1 0 0 1 2.35,-2 z m 54.73,-3.12 c 0,-0.49 0.75,-0.64 1.27,-0.61 a 28.81,28.81 0 0 0 2.94,0 5.48,5.48 0 0 1 -2.9,1.68 c -0.78,0.13 -1.49,-0.44 -1.31,-1 z m 0.72,-12.16 a 13.13,13.13 0 0 0 2.11,-1 3.26,3.26 0 0 1 -1.78,2.11 0.59,0.59 0 0 1 -0.33,-1.13 z m -35.16,-12.59 c 1,3.74 2.32,7.2 6.71,8.59 4.08,1.3 10,0.38 14.47,0 3.71,-0.13 7.16,-0.82 9.91,1.11 a 7.92,7.92 0 0 1 2.62,3.43 35.89,35.89 0 0 1 1.72,3.94 4.51,4.51 0 0 1 -0.49,3.71 11,11 0 0 0 -1.93,4.9 c -0.19,1.67 -0.54,3.32 -0.84,5 a 18,18 0 0 1 -1.58,5 c -0.8,1.45 -2.26,2.56 -3.22,3.94 a 26,26 0 0 0 -3.36,7.21 c -0.66,1.94 -0.92,4 -1.48,5.91 a 6.56,6.56 0 0 1 -3.31,4.3 c -2.72,1.45 -6.13,1.81 -9.05,2.94 -2.69,1 -4.49,2.77 -6.62,4.37 -1.68,1.28 -3.11,2.74 -5.54,3.09 -4.47,0.68 -5.6,-2.88 -13.67,0 a 3.66,3.66 0 0 1 -3.06,-0.14 c -1.93,-0.94 -2.15,-3.57 -4.3,-4.72 -2.15,-1.15 -4.77,-1.06 -7.16,-1.52 a 3.51,3.51 0 0 1 -2.52,-1.63 c -0.69,-1.4 -0.71,-2.94 -1.31,-4.37 -1.56,-3.17 -6.69,-4.2 -8.16,-7.13 -1.47,-2.93 0.52,-4.65 0.53,-7.11 -0.15,-3.28 -2.36,-4.93 -6.71,-5.08 a 26,26 0 0 0 4.11,-10.06 c 0.55,-1.32 0.88,-2.79 2.29,-3.69 a 17.64,17.64 0 0 1 4.71,-1.57 9.65,9.65 0 0 1 5.51,0.26 c 4.1,2.25 3.16,8.18 1,10.61 -2.95,3.33 -10.35,2.67 -9.08,-2.56 1.53,1.29 3,3.25 5.13,0.93 a 1,1 0 0 0 0.24,-0.81 3.23,3.23 0 0 0 -2.11,-2.12 3,3 0 0 0 -1.9,-0.18 7.1,7.1 0 0 0 -4.38,3.57 c -1.66,3.28 1.93,5.9 6.08,5.27 3.86,-0.77 5.64,-2.33 8.14,-4.39 a 69.52,69.52 0 0 0 0.36,11.57 31.87,31.87 0 0 0 2.92,9.34 13.07,13.07 0 0 0 6.65,5.9 c 3.22,1.29 6.76,1.32 10.29,1.3 6,0 14.85,-2.59 19.71,-5.1 7.77,-4.11 8.88,-7.4 12.69,-13.84 a 73,73 0 0 0 4.43,-9.92 28.84,28.84 0 0 0 2.09,-10.08 8.79,8.79 0 0 0 -1.87,-5.88 c -3.4,-4.3 -10.65,-2.47 -17.35,-2.67 -0.52,1.05 -0.92,2.25 0,3.25 1.64,1.77 5.62,1.5 8.28,1.71 -11.45,4.66 -21.71,-0.43 -24.55,-9.43 2.38,3 6.24,9.07 12.08,7.27 2.13,-0.64 1.15,-2.15 0.47,-3.31 -0.17,-0.41 -0.91,-0.41 -1.34,-0.57 a 8.67,8.67 0 0 1 -6.21,-10.46 z m -36.77,-1.92 c 0.86,0.67 1.15,1.58 2,2.25 8.11,6.17 15.27,6.15 25.61,6.49 -9.16,2.25 -20.84,0.87 -27.36,-5.31 a 9.52,9.52 0 0 1 -2.09,-2.65 c -0.47,-1.44 0.8,-1.59 1.83,-0.78 z m 38.36,-1.7 c 8.29,-0.45 16.76,2.68 19.42,10.72 -1.1,-1.19 -5.61,-2.25 -7.3,-1.84 a 1.13,1.13 0 0 0 -1,0.76 c -0.19,0.71 0.24,1.27 0.52,1.93 -4.55,0.52 -7.85,-1 -9.89,-3.92 a 14,14 0 0 0 3.21,1.31 6.41,6.41 0 0 0 5.75,-1.93 c 0.81,-0.88 0.29,-2 -0.67,-2.68 -3.46,-2.58 -6.4,-2.87 -10.07,-4.35 z m 8.47,-15 c 1.08,-0.81 2,-1.72 3,-2.56 -4.63,7.06 -15.9,12.65 -24.78,14.22 -4.47,0.89 -14.27,2.06 -18.39,-0.2 -0.45,-0.24 -0.91,-0.78 -0.49,-1.19 a 4.61,4.61 0 0 1 2.6,-0.4 c 1.74,0.16 3.59,-0.05 5.34,0 a 79.2,79.2 0 0 0 13.59,-1.31 48,48 0 0 0 19.11,-8.52 z m -83.81,-25.63 a 6.18,6.18 0 0 1 3.83,0.44 7,7 0 0 1 3,2.89 2,2 0 0 1 0.45,1.77 c -0.4,0.09 -0.82,0.13 -1.21,0.23 -0.34,0.33 -0.23,0.79 -0.23,1.17 a 18.51,18.51 0 0 0 2,5.72 1.81,1.81 0 0 0 0.64,0.68 c 0.35,-2.17 -0.21,-4.31 0.68,-6.43 0.16,-0.31 0.33,-0.7 0.8,-0.78 0.76,0 1.33,0.63 2.1,0.51 0.65,-0.3 0.55,-1 0.5,-1.5 -0.2,-1.3 -1.48,-2.21 -2.33,-3.25 a 10.74,10.74 0 0 1 4.41,4.47 2.55,2.55 0 0 1 -0.78,3.2 2.51,2.51 0 0 1 -1.82,0.2 c -1.37,1.33 -1.16,3 -0.84,4.61 0.11,0.4 0.2,1.08 0.9,1 1.44,-0.31 2.36,-1.29 3.57,-1.9 -2.77,3.42 -5.12,5.31 -7,9.51 a 8.41,8.41 0 0 0 0,-2.65 2.18,2.18 0 0 0 -1.2,-1.1 c -1.37,-0.67 -3,-1 -4.35,-1.67 -1.35,-0.67 -2.21,-2 -3.12,-3.08 -0.57,-0.7 -1.69,-0.32 -2.39,-0.89 a 9.1,9.1 0 0 1 -0.31,-2.09 c -0.21,-1.07 -0.27,-2.51 -1.47,-3.22 a 8.55,8.55 0 0 0 -4.29,-0.71 v 0 a 6.94,6.94 0 0 1 3.47,-0.63 7.11,7.11 0 0 1 4.56,2.55 c 0.76,0.87 0.6,2 1.33,2.89 a 7.68,7.68 0 0 0 2.12,1.49 8.22,8.22 0 0 0 2.65,1.21 3.13,3.13 0 0 0 -0.71,-3 8.83,8.83 0 0 1 -2.17,-4.91 5.19,5.19 0 0 1 0.6,-3.45 c 0.29,-0.56 0.81,-1.21 0.34,-1.8 -0.83,-1 -2.46,-1.06 -3.76,-1.42 z m 51.28,-19.74 a 139.81,139.81 0 0 0 12.6,7.42 c -0.89,0.71 -1.94,1.8 -3.13,1.78 -2.61,-0.95 -8.27,-6.92 -9.47,-9.2 z m 5.42,-8.11 h 0.08 c 5.46,6.87 11.29,12.19 19.49,16.07 a 16.38,16.38 0 0 0 7,2 c 1.45,0.11 2.83,-0.86 4.27,-0.87 a 8.11,8.11 0 0 1 4.58,1.54 1.45,1.45 0 0 1 0.7,1 8.1,8.1 0 0 0 2.33,4.7 c 0.91,0.81 2.4,0.75 3.71,0.52 a 2.8,2.8 0 0 0 2,2.21 c 1.12,0.22 2.06,-0.93 3.27,-0.6 0.5,0.65 0.78,1.28 1.3,1.93 0.46,0.45 1.25,0.57 1.8,0.95 a 10.94,10.94 0 0 1 4.32,5 c -1.2,-1.3 -2.59,-2.9 -4.53,-3.56 0.08,2.81 -0.1,6.76 -2,8.26 -0.08,-1.81 0,-3.57 -1.06,-5.18 -1.65,1.2 -3.33,2.9 -5.49,3.29 0.83,-1 2.47,-2.13 1.94,-3.4 a 4.33,4.33 0 0 0 -3.39,-0.47 11.86,11.86 0 0 0 -4.81,2.56 24.77,24.77 0 0 0 -1.11,-2.78 c -1,0.17 -4.68,1.39 -3.64,3 1.59,2 4.14,1.2 5.66,1.49 a 4.07,4.07 0 0 1 2.25,2 c 0.09,-0.74 0.15,-1.49 0.27,-2.24 a 50.93,50.93 0 0 1 4.31,6.05 c 1.83,-0.81 2.2,-1.66 2.43,-4 a 6.28,6.28 0 0 1 0.84,3.49 3.74,3.74 0 0 0 1.16,-1.53 c 0.69,3.19 -0.07,8 -4.57,9.47 0.82,-2.13 1.14,-4 -1.73,-4 -2.26,0 -4.8,0.83 -7,1.09 0.87,-0.45 4.72,-2.63 4.05,-3.9 -0.29,-0.49 -0.84,-0.64 -1.43,-0.86 a 20.81,20.81 0 0 0 -4.29,-1.44 c -0.73,-0.11 -1.39,0.43 -2,0.69 -3.73,-1.78 -5.05,0.42 -7.71,0.82 a 7.18,7.18 0 0 1 -6.69,-3.12 c -3,-4.64 1.48,-7.48 5.28,-8.66 -5,-0.58 -7,1.12 -8.19,6.1 a 44,44 0 0 0 -6.54,-1.43 c -16.58,-2.42 -29.7,2.48 -37.31,10.57 -7.34,7.8 -11.9,19.86 -11.82,29.69 -0.22,10.71 3.06,17 8.61,26.37 -8,-6.59 -11.61,-14.9 -14,-20.42 -1,1.16 -0.69,2.62 -1,3.95 -4.65,-6.33 1.81,-22.29 4.88,-29.45 -2.43,1.12 -3.9,3.14 -5.65,4.8 -0.29,-9.06 7.7,-18.23 15.88,-25.62 a 24.56,24.56 0 0 0 -6.69,2.47 c 7.83,-8.28 22.16,-13 35.09,-13.53 -3.05,-1 -6.68,-1.22 -9.89,-1.77 10.1,-2.09 17,-2.17 23.84,-6.69 3.18,2.06 6.88,4.16 8.7,3.6 -5.46,-3.89 -15.45,-13 -17.39,-20.09 z m 29.84,21.53 a 17.49,17.49 0 0 0 2,2.32 3.64,3.64 0 0 0 3.59,1.15 7.43,7.43 0 0 0 -0.95,-2.19 1.41,1.41 0 0 0 -1,-0.49 c -1.24,-0.22 -2.43,-0.57 -3.67,-0.79 z"
               transform="translate(-181,-396.92)"
               id="path34841"
               style="stroke-width:42.3668" /><path
               class="cls-1"
               d="m 186.3,435.17 c 25.51,-15.94 54.75,-28.61 80.73,-32.88 v 0 c 26,4.27 55.22,16.94 80.73,32.88 V 437 c -25.23,-15.87 -54,-28.53 -79.56,-33 v 0 c -26,4 -55.22,16.34 -80.73,32 -0.34,60.4 16.11,108.48 42.91,137.5 -27.49,-28.58 -44.42,-77 -44.08,-138.28 z"
               id="path34843"
               transform="translate(-181,-396.92)"
               style="stroke-width:42.3668" /></g></g></g></g></g><style
     type="text/css"
     id="style33823">
	.st0{fill:#97741F;}
	.st1{fill:#004C25;}
</style></svg>
