<?xml version="1.0" encoding="UTF-8" standalone="no"?>
<!-- Created with Inkscape (http://www.inkscape.org/) -->

<svg
   width="100"
   height="100"
   viewBox="0 0 26.458333 26.458331"
   version="1.1"
   id="svg32214"
   xml:space="preserve"
   inkscape:export-filename="versage.png"
   inkscape:export-xdpi="94.080002"
   inkscape:export-ydpi="94.080002"
   inkscape:version="1.2.2 (732a01da63, 2022-12-09)"
   sodipodi:docname="rolex.svg"
   xmlns:inkscape="http://www.inkscape.org/namespaces/inkscape"
   xmlns:sodipodi="http://sodipodi.sourceforge.net/DTD/sodipodi-0.dtd"
   xmlns="http://www.w3.org/2000/svg"
   xmlns:svg="http://www.w3.org/2000/svg"><sodipodi:namedview
     id="namedview32216"
     pagecolor="#ffffff"
     bordercolor="#000000"
     borderopacity="0.25"
     inkscape:showpageshadow="2"
     inkscape:pageopacity="0.0"
     inkscape:pagecheckerboard="0"
     inkscape:deskcolor="#d1d1d1"
     inkscape:document-units="mm"
     showgrid="false"
     inkscape:zoom="2.1719924"
     inkscape:cx="15.423627"
     inkscape:cy="-28.54522"
     inkscape:window-width="1920"
     inkscape:window-height="1057"
     inkscape:window-x="-8"
     inkscape:window-y="-8"
     inkscape:window-maximized="1"
     inkscape:current-layer="layer1-9" /><defs
     id="defs32211"><pattern
       id="EMFhbasepattern"
       patternUnits="userSpaceOnUse"
       width="6"
       height="6"
       x="0"
       y="0" /><pattern
       id="EMFhbasepattern-9"
       patternUnits="userSpaceOnUse"
       width="6"
       height="6"
       x="0"
       y="0" /><pattern
       id="EMFhbasepattern-7"
       patternUnits="userSpaceOnUse"
       width="6"
       height="6"
       x="0"
       y="0" /><clipPath
       clipPathUnits="userSpaceOnUse"
       id="clipPath33521"><rect
         style="fill:none;stroke:#00ff00;stroke-width:0.105833"
         id="rect33523"
         width="75.202255"
         height="106.69482"
         x="-81.052208"
         y="126.72875" /></clipPath><inkscape:perspective
       sodipodi:type="inkscape:persp3d"
       inkscape:vp_x="0 : 539.41023 : 1"
       inkscape:vp_y="0 : 999.99996 : 0"
       inkscape:vp_z="744.09447 : 539.41023 : 1"
       inkscape:persp3d-origin="372.04724 : 364.01654 : 1"
       id="perspective10" /><inkscape:perspective
       id="perspective2399"
       inkscape:persp3d-origin="358.69965 : 174.44867 : 1"
       inkscape:vp_z="717.39928 : 255.05843 : 1"
       inkscape:vp_y="0 : 999.99996 : 0"
       inkscape:vp_x="0 : 255.05843 : 1"
       sodipodi:type="inkscape:persp3d" /><clipPath
       id="clipPath831"><path
         d="M 0,595.28 H 841.89 V 0 H 0 Z"
         id="path33767" /></clipPath><style
       id="style3233">.cls-1{fill:#fff}</style><inkscape:perspective
       sodipodi:type="inkscape:persp3d"
       inkscape:vp_x="0 : 539.41023 : 1"
       inkscape:vp_y="0 : 999.99996 : 0"
       inkscape:vp_z="744.09447 : 539.41023 : 1"
       inkscape:persp3d-origin="372.04724 : 364.01654 : 1"
       id="perspective10-5" /><inkscape:perspective
       id="perspective2390"
       inkscape:persp3d-origin="372.04724 : 364.01654 : 1"
       inkscape:vp_z="744.09447 : 539.41023 : 1"
       inkscape:vp_y="0 : 999.99996 : 0"
       inkscape:vp_x="0 : 539.41023 : 1"
       sodipodi:type="inkscape:persp3d" /><inkscape:perspective
       id="perspective2405"
       inkscape:persp3d-origin="372.04724 : 364.01654 : 1"
       inkscape:vp_z="744.09447 : 539.41023 : 1"
       inkscape:vp_y="0 : 999.99996 : 0"
       inkscape:vp_x="0 : 539.41023 : 1"
       sodipodi:type="inkscape:persp3d" /><inkscape:perspective
       sodipodi:type="inkscape:persp3d"
       inkscape:vp_x="0 : 526.18109 : 1"
       inkscape:vp_y="0 : 1000 : 0"
       inkscape:vp_z="744.09448 : 526.18109 : 1"
       inkscape:persp3d-origin="372.04724 : 350.78739 : 1"
       id="perspective10-7" /><inkscape:perspective
       id="perspective2390-6"
       inkscape:persp3d-origin="372.04724 : 350.78739 : 1"
       inkscape:vp_z="744.09448 : 526.18109 : 1"
       inkscape:vp_y="0 : 1000 : 0"
       inkscape:vp_x="0 : 526.18109 : 1"
       sodipodi:type="inkscape:persp3d" /><inkscape:perspective
       id="perspective2405-7"
       inkscape:persp3d-origin="372.04724 : 350.78739 : 1"
       inkscape:vp_z="744.09448 : 526.18109 : 1"
       inkscape:vp_y="0 : 1000 : 0"
       inkscape:vp_x="0 : 526.18109 : 1"
       sodipodi:type="inkscape:persp3d" /><style
       id="style3233-9">.cls-1{fill:#fff}</style></defs><g
     inkscape:label="Layer 1"
     inkscape:groupmode="layer"
     id="layer1"
     transform="translate(-40.2871,-85.425155)"><g
       id="g8882"
       transform="matrix(0.03984374,0,0,0.03984374,-2.7182696,74.491022)"
       style="stroke-width:6.64052"><g
         id="layer1-9"
         transform="matrix(6.6405245,0,0,6.6405245,841.91346,-712.43396)"><g
           id="g35163"
           transform="matrix(0.5263712,0,0,0.5263712,20.448925,158.0258)"
           style="stroke-width:12.6157"><path
             class="st0"
             d="m 124.09,72.64 c 5.81,0 10.53,1.48 10.53,3.31 0,1.83 -4.71,3.31 -10.53,3.31 -5.82,0 -10.53,-1.48 -10.53,-3.31 0,-1.82 4.72,-3.31 10.53,-3.31 M 101.05,42.99 c 0.29,0 0.57,-0.05 0.83,-0.12 l 9.56,32.5 c 1.07,3.63 6.35,6.38 12.7,6.38 6.36,0 11.64,-2.75 12.7,-6.38 l 9.55,-32.47 c 0.23,0.05 0.48,0.09 0.73,0.09 1.86,0 3.36,-1.5 3.36,-3.37 0,-1.85 -1.5,-3.36 -3.36,-3.36 -1.86,0 -3.36,1.51 -3.36,3.36 0,1.34 0.78,2.49 1.91,3.03 l -11.07,23.74 1.78,-31.98 h 0.07 c 1.86,0 3.36,-1.5 3.36,-3.35 0,-1.86 -1.5,-3.36 -3.36,-3.36 -1.86,0 -3.36,1.5 -3.36,3.36 0,1.53 1.03,2.82 2.42,3.22 l -7.37,31.26 -3.55,-34.46 c 1.63,-0.23 2.88,-1.63 2.88,-3.32 0,-1.85 -1.51,-3.36 -3.36,-3.36 -1.86,0 -3.36,1.51 -3.36,3.36 0,1.7 1.27,3.1 2.9,3.32 l -3.55,34.39 -7.35,-31.2 c 1.41,-0.4 2.46,-1.69 2.46,-3.23 0,-1.86 -1.51,-3.36 -3.36,-3.36 -1.86,0 -3.36,1.5 -3.36,3.36 0,1.85 1.5,3.35 3.36,3.35 h 0.05 l 1.78,31.97 -11.1,-23.77 c 1.08,-0.56 1.83,-1.68 1.83,-2.99 0,-1.85 -1.5,-3.36 -3.36,-3.36 -1.85,0 -3.35,1.51 -3.35,3.36 -0.01,1.89 1.5,3.39 3.35,3.39"
             id="path35139"
             style="stroke-width:12.6157" /><path
             class="st1"
             d="m 94.22,122.54 c -0.54,0.82 -1.22,1.53 -2.01,2.12 -1.28,1.02 -2.75,1.62 -4.31,1.69 -0.31,0.03 -0.62,0.05 -0.92,0.05 -0.32,0 -0.62,-0.02 -0.92,-0.05 -1.57,-0.07 -3.04,-0.67 -4.32,-1.69 -0.79,-0.59 -1.48,-1.3 -2.01,-2.12 -1.82,-2.5 -2.94,-6.01 -2.94,-9.91 0,-3.66 1,-6.98 2.62,-9.45 0.9,-1.62 2.33,-2.9 4.07,-3.65 0.02,-0.01 0.03,-0.02 0.05,-0.02 0.08,-0.03 0.16,-0.07 0.25,-0.1 0.22,-0.1 0.47,-0.18 0.7,-0.24 0.79,-0.24 1.64,-0.36 2.51,-0.36 0.87,0 1.71,0.12 2.51,0.36 0.24,0.07 0.48,0.15 0.71,0.24 0.08,0.03 0.16,0.07 0.25,0.1 0.01,0.01 0.03,0.01 0.04,0.02 1.73,0.75 3.17,2.04 4.07,3.65 1.62,2.46 2.62,5.79 2.62,9.45 -0.03,3.89 -1.16,7.41 -2.97,9.91 M 86.96,95.38 c -9.64,0 -17.45,7.82 -17.45,17.21 0,9.4 7.81,17.22 17.45,17.22 9.64,0 17.45,-7.82 17.45,-17.22 0,-9.39 -7.81,-17.21 -17.45,-17.21"
             id="path35141"
             style="stroke-width:12.6157" /><path
             class="st1"
             d="m 138.98,116.18 h -2.42 v 4.85 c -0.07,2.91 -2.45,5.25 -5.37,5.25 -0.01,0 -0.02,-0.01 -0.03,-0.01 v 0.01 h -10.2 V 99.02 h 4.68 v -2.43 h -16.86 v 2.43 h 4.68 v 27.27 h -4.68 v 2.43 h 30.21 v -0.01 H 139 v -7.94 h -0.01 v -4.59"
             id="path35143"
             style="stroke-width:12.6157" /><path
             class="st1"
             d="m 175.84,96.6 h -31.77 v 2.43 h 4.59 v 27.27 h -4.59 v 2.43 H 176 v -11.56 h -2.43 V 121 h -0.01 c -0.03,2.94 -2.43,5.3 -5.37,5.3 h -0.03 v 0.01 h -8.66 v -0.01 h -3.34 v -13.53 h 2.43 c 0.02,0 0.04,0 0.06,0 h 1.36 c 2.17,0.02 3.93,1.79 3.93,3.97 v 0.08 1.78 h 2.22 v -13.45 h -2.21 v 1.55 h -0.01 c 0,0.03 0.01,0.06 0.01,0.09 0,2.18 -1.75,3.73 -3.93,3.75 h -3.85 V 99.03 h 7.01 0.12 4.93 c 2.94,0.01 5.32,2.38 5.35,5.31 h 0.01 v 3.3 h 2.43 V 96.6 h -0.18"
             id="path35145"
             style="stroke-width:12.6157" /><path
             class="st1"
             d="m 217.51,126.4 c -2.33,-0.06 -2.88,-0.78 -4.68,-2.84 l -10.64,-13.24 7.04,-8.4 v 0.01 c 1.89,-2.16 2.41,-2.9 4.84,-2.94 h 1.83 v -2.35 h -12.96 v 2.35 h 2.85 v 0 c 0.62,0 1.11,0.49 1.11,1.1 0,0.24 -0.08,0.46 -0.21,0.64 l -6.23,7.44 -4.9,-6.09 -1.03,-1.29 c -0.15,-0.19 -0.25,-0.42 -0.25,-0.69 0,-0.61 0.49,-1.1 1.1,-1.11 h 2.79 v -2.35 h -16.22 v 2.35 h 0.77 c 2.07,0.1 2.67,0.8 4.29,2.67 l 9.41,11.72 -8.48,10.12 v -0.02 c -1.89,2.16 -2.41,2.9 -4.85,2.94 h -1.97 v 2.35 H 195 v -2.35 h -3.41 v -0.01 c -0.01,0 -0.01,0.01 -0.01,0.01 -0.61,0 -1.11,-0.49 -1.11,-1.11 0,-0.25 0.1,-0.49 0.24,-0.68 l 7.53,-8.99 6.26,7.79 0.95,1.19 c 0.15,0.19 0.24,0.43 0.24,0.69 0,0.61 -0.49,1.11 -1.1,1.11 h -0.01 v 0.01 h -3 v 2.34 h 0.02 v 0.01 h 17.46 v -2.35 h -1.55"
             id="path35147"
             style="stroke-width:12.6157" /><path
             class="st1"
             d="M 49.02,110.71 H 41.2 V 98.95 h 7.82 c 3.37,0.14 6.05,2.47 6.05,5.87 0,3.41 -2.69,5.74 -6.05,5.89 M 64,126.25 61.88,120.08 c -0.99,-2.75 -1.7,-3.98 -3.25,-5.41 -1.03,-0.91 -2.45,-1.35 -3.51,-1.65 3.95,-0.64 6.96,-4.06 6.96,-8.18 0,-4.57 -3.7,-8.29 -8.28,-8.29 -0.05,0 -0.1,0.01 -0.15,0.01 V 96.55 H 29.16 v 2.42 h 4.52 v 27.3 h -4.6 v 2.43 h 12.04 4.68 v -2.43 h -4.62 v -13.12 h 3.58 c 0.12,0 0.22,0.01 0.34,0.01 h 0.73 c 1.14,0.05 2.14,0.21 3.03,0.47 0.83,0.21 1.71,0.49 2.29,0.87 0.79,0.51 1.64,1.23 2.38,2.5 0.2,0.33 0.37,0.67 0.53,1.02 1.37,2.57 2.19,6.13 3.1,10.66 h 5.52 v 0.01 h 4.98 v -2.43 H 64 Z"
             id="path35149"
             style="stroke-width:12.6157" /></g></g></g></g><style
     type="text/css"
     id="style33823">
	.st0{fill:#97741F;}
	.st1{fill:#004C25;}
</style><style
     type="text/css"
     id="style35137">
	.st0{fill:#97741F;}
	.st1{fill:#004C25;}
</style></svg>
