<?xml version="1.0" encoding="UTF-8" standalone="no"?>
<!-- Created with Inkscape (http://www.inkscape.org/) -->

<svg
   width="100"
   height="100"
   viewBox="0 0 26.458333 26.458331"
   version="1.1"
   id="svg32214"
   xml:space="preserve"
   inkscape:export-filename="versage.png"
   inkscape:export-xdpi="94.080002"
   inkscape:export-ydpi="94.080002"
   inkscape:version="1.2.2 (732a01da63, 2022-12-09)"
   sodipodi:docname="sony.svg"
   xmlns:inkscape="http://www.inkscape.org/namespaces/inkscape"
   xmlns:sodipodi="http://sodipodi.sourceforge.net/DTD/sodipodi-0.dtd"
   xmlns="http://www.w3.org/2000/svg"
   xmlns:svg="http://www.w3.org/2000/svg"><sodipodi:namedview
     id="namedview32216"
     pagecolor="#ffffff"
     bordercolor="#000000"
     borderopacity="0.25"
     inkscape:showpageshadow="2"
     inkscape:pageopacity="0.0"
     inkscape:pagecheckerboard="0"
     inkscape:deskcolor="#d1d1d1"
     inkscape:document-units="mm"
     showgrid="false"
     inkscape:zoom="4.3439847"
     inkscape:cx="58.126356"
     inkscape:cy="58.241457"
     inkscape:window-width="1920"
     inkscape:window-height="1057"
     inkscape:window-x="-8"
     inkscape:window-y="-8"
     inkscape:window-maximized="1"
     inkscape:current-layer="layer1-9" /><defs
     id="defs32211"><pattern
       id="EMFhbasepattern"
       patternUnits="userSpaceOnUse"
       width="6"
       height="6"
       x="0"
       y="0" /><pattern
       id="EMFhbasepattern-9"
       patternUnits="userSpaceOnUse"
       width="6"
       height="6"
       x="0"
       y="0" /><pattern
       id="EMFhbasepattern-7"
       patternUnits="userSpaceOnUse"
       width="6"
       height="6"
       x="0"
       y="0" /><clipPath
       clipPathUnits="userSpaceOnUse"
       id="clipPath33521"><rect
         style="fill:none;stroke:#00ff00;stroke-width:0.105833"
         id="rect33523"
         width="75.202255"
         height="106.69482"
         x="-81.052208"
         y="126.72875" /></clipPath><inkscape:perspective
       sodipodi:type="inkscape:persp3d"
       inkscape:vp_x="0 : 539.41023 : 1"
       inkscape:vp_y="0 : 999.99996 : 0"
       inkscape:vp_z="744.09447 : 539.41023 : 1"
       inkscape:persp3d-origin="372.04724 : 364.01654 : 1"
       id="perspective10" /><inkscape:perspective
       id="perspective2399"
       inkscape:persp3d-origin="358.69965 : 174.44867 : 1"
       inkscape:vp_z="717.39928 : 255.05843 : 1"
       inkscape:vp_y="0 : 999.99996 : 0"
       inkscape:vp_x="0 : 255.05843 : 1"
       sodipodi:type="inkscape:persp3d" /><clipPath
       id="clipPath831"><path
         d="M 0,595.28 H 841.89 V 0 H 0 Z"
         id="path33767" /></clipPath><style
       id="style3233">.cls-1{fill:#fff}</style><inkscape:perspective
       sodipodi:type="inkscape:persp3d"
       inkscape:vp_x="0 : 539.41023 : 1"
       inkscape:vp_y="0 : 999.99996 : 0"
       inkscape:vp_z="744.09447 : 539.41023 : 1"
       inkscape:persp3d-origin="372.04724 : 364.01654 : 1"
       id="perspective10-5" /><inkscape:perspective
       id="perspective2390"
       inkscape:persp3d-origin="372.04724 : 364.01654 : 1"
       inkscape:vp_z="744.09447 : 539.41023 : 1"
       inkscape:vp_y="0 : 999.99996 : 0"
       inkscape:vp_x="0 : 539.41023 : 1"
       sodipodi:type="inkscape:persp3d" /><inkscape:perspective
       id="perspective2405"
       inkscape:persp3d-origin="372.04724 : 364.01654 : 1"
       inkscape:vp_z="744.09447 : 539.41023 : 1"
       inkscape:vp_y="0 : 999.99996 : 0"
       inkscape:vp_x="0 : 539.41023 : 1"
       sodipodi:type="inkscape:persp3d" /><inkscape:perspective
       sodipodi:type="inkscape:persp3d"
       inkscape:vp_x="0 : 526.18109 : 1"
       inkscape:vp_y="0 : 1000 : 0"
       inkscape:vp_z="744.09448 : 526.18109 : 1"
       inkscape:persp3d-origin="372.04724 : 350.78739 : 1"
       id="perspective10-7" /><inkscape:perspective
       id="perspective2390-6"
       inkscape:persp3d-origin="372.04724 : 350.78739 : 1"
       inkscape:vp_z="744.09448 : 526.18109 : 1"
       inkscape:vp_y="0 : 1000 : 0"
       inkscape:vp_x="0 : 526.18109 : 1"
       sodipodi:type="inkscape:persp3d" /><inkscape:perspective
       id="perspective2405-7"
       inkscape:persp3d-origin="372.04724 : 350.78739 : 1"
       inkscape:vp_z="744.09448 : 526.18109 : 1"
       inkscape:vp_y="0 : 1000 : 0"
       inkscape:vp_x="0 : 526.18109 : 1"
       sodipodi:type="inkscape:persp3d" /><style
       id="style3233-9">.cls-1{fill:#fff}</style></defs><g
     inkscape:label="Layer 1"
     inkscape:groupmode="layer"
     id="layer1"
     transform="translate(-40.2871,-85.425155)"><g
       id="g8882"
       transform="matrix(0.03984374,0,0,0.03984374,-2.7182696,74.491022)"
       style="stroke-width:6.64052"><g
         id="layer1-9"
         transform="matrix(6.6405245,0,0,6.6405245,841.91346,-712.43396)"><g
           id="layer1-0"
           transform="matrix(0.2952756,0,0,0.2952756,227.08437,101.21271)"
           style="stroke-width:84.9987"><path
             id="path3256"
             clip-path="none"
             style="fill:#0f0f0f;fill-opacity:1;stroke-width:8.66985"
             d="m -390.36907,303.38752 v 6.62384 h 6.46774 c 2.82447,0 4.68086,1.78143 5.7375,2.93289 0.84666,0.94825 19.47345,22.06779 19.92048,22.62321 0.44705,0.55541 0.44713,0.56192 0.44713,0.91415 v 10.46558 a 7.4100256,7.4100256 0 0 1 -0.14285,1.42874 2.282613,2.282613 0 0 1 -1.43537,1.27398 14.779411,14.779411 0 0 1 -1.84281,0.1152 l -6.47434,-0.008 v 6.62385 h 36.31802 v -6.62385 h -6.8342 a 13.390878,13.390878 0 0 1 -1.82958,-0.11648 2.2555197,2.2555197 0 0 1 -1.42876,-1.27265 7.4506656,7.4506656 0 0 1 -0.14823,-1.42876 v -10.45896 a 1.4223998,1.4223998 0 0 1 0.24346,-0.975 l 20.15065,-22.98831 c 1.84912,-2.05911 2.81127,-2.50693 5.23612,-2.50693 h 6.6847 v -6.62385 h -29.931 v 6.61061 h 4.51776 a 1.2666131,1.2666131 0 0 1 1.08346,2.032 c -0.0947,0.13543 -12.53112,14.75899 -12.68676,14.90133 -0.15565,0.14233 -0.25654,0.10803 -0.37174,-0.0476 -0.1152,-0.1559 -12.40233,-14.85371 -12.40233,-14.85371 -0.867,-1.06342 -0.18918,-2.032 0.82683,-2.032 h 4.40266 v -6.61061 z" /><path
             id="path3254"
             clip-path="none"
             style="fill:#0f0f0f;fill-opacity:1;stroke-width:8.66985"
             d="m -479.445,303.38752 v 6.62384 h 5.79702 c 4.18591,0 4.47145,2.33099 4.47145,4.36299 v 31.00121 c 0,1.85589 0.10752,4.40266 -2.56115,4.40266 h -7.15303 v 6.61724 h 30.54218 v -6.61724 h -7.45065 c -2.97362,0 -3.10947,-1.36095 -3.14327,-4.25316 v -26.55887 l 41.94706,37.42927 h 10.66798 l -0.56223,-42.27248 c 0.0543,-3.08864 0.24397,-4.11825 3.44089,-4.11825 h 6.6847 v -6.61721 h -31.15732 v 6.61721 h 6.84214 c 3.14281,0 3.67006,1.2125 3.71077,4.11825 l 0.37307,22.1218 -36.41328,-32.85726 z" /><path
             id="path3252"
             clip-path="none"
             style="fill:#0f0f0f;fill-opacity:1;stroke-width:8.66985"
             d="m -616.97803,300.05509 c -6.56338,0 -14.02081,1.23274 -20.32,4.064 -5.87927,2.62804 -10.668,6.84746 -10.668,13.84432 a 14.345918,14.345918 0 0 0 3.89465,9.86235 c 1.70012,1.57143 4.44375,4.24013 11.60993,5.81156 3.20379,0.67732 10.05174,1.76778 16.87247,2.48576 6.82076,0.71798 13.43158,1.3549 16.1409,2.07964 2.15394,0.54863 5.77718,1.2938 5.77718,5.3578 0,4.064 -3.81294,5.28281 -4.47675,5.54698 -0.66378,0.26416 -5.24316,2.36406 -13.46595,2.36406 a 57.261751,57.261751 0 0 1 -16.03244,-2.75694 c -3.06831,-1.09727 -6.28495,-2.54011 -9.28555,-6.2045 a 10.654452,10.654452 0 0 1 -1.93144,-5.87904 h -7.45068 v 20.86239 h 8.27748 v -2.82442 a 1.1785598,1.1785598 0 0 1 1.78859,-1.01599 65.200098,65.200098 0 0 0 12.10998,3.91449 c 4.34849,0.90763 7.15996,1.56501 12.56507,1.56501 a 53.610926,53.610926 0 0 0 16.83806,-2.37727 29.389489,29.389489 0 0 0 10.00389,-4.93844 13.709225,13.709225 0 0 0 5.35782,-10.97889 15.361918,15.361918 0 0 0 -4.32727,-10.79765 19.053384,19.053384 0 0 0 -5.33795,-3.64992 39.319193,39.319193 0 0 0 -6.58417,-2.2966 c -4.29427,-1.04988 -13.93861,-2.36385 -18.55124,-2.82442 -4.83615,-0.50125 -13.22864,-1.19941 -16.58145,-2.23572 -1.01599,-0.31834 -3.089,-1.29964 -3.089,-3.70417 0,-1.71366 0.94838,-3.16342 2.81782,-4.3352 2.97349,-1.86269 8.97482,-3.02155 15.23338,-3.02155 a 44.182447,44.182447 0 0 1 17.65166,3.44753 19.276904,19.276904 0 0 1 4.19893,2.50693 12.625491,12.625491 0 0 1 4.13809,6.9215 h 6.68603 v -18.15836 h -7.45068 v 2.10608 c 0,0.67733 -0.67732,1.57172 -2.032,0.83344 -3.35956,-1.74751 -12.80176,-5.52735 -24.37736,-5.57476 z" /><path
             id="path3237"
             clip-path="none"
             style="fill:#0f0f0f;fill-opacity:1;stroke-width:8.66985"
             d="m -527.31207,300.05509 c -11.73819,0 -24.2017,4.06349 -31.24598,10.46428 a 26.01637,26.01637 0 0 0 -8.50107,19.29738 25.637062,25.637062 0 0 0 8.50107,19.36483 c 7.58613,6.82074 18.96591,10.47883 31.24598,10.47883 12.30033,0 23.9234,-3.61746 31.32666,-10.47883 a 26.863036,26.863036 0 0 0 8.38464,-19.36483 25.77253,25.77253 0 0 0 -8.38464,-19.28284 c -7.94511,-7.20683 -18.34222,-10.47882 -31.32666,-10.47882 z m 0,7.74833 c 6.42109,0 12.605,2.31034 16.7706,6.40821 4.03013,3.96915 6.13568,9.5775 6.13568,15.57865 0,6.28567 -1.91588,11.3792 -6.13568,15.57867 -4.21977,4.19948 -10.26147,6.4479 -16.7706,6.4479 -6.46178,0 -12.63281,-2.29583 -16.79841,-6.4479 a 21.78981,21.78981 0 0 1 -6.096,-15.57867 c 0,-5.97407 2.07941,-11.60274 6.096,-15.57865 4.1656,-4.11819 10.37729,-6.40821 16.79841,-6.40821 z" /></g></g></g></g><style
     type="text/css"
     id="style33823">
	.st0{fill:#97741F;}
	.st1{fill:#004C25;}
</style></svg>
