<?xml version="1.0" encoding="UTF-8" standalone="no"?>
<!-- Created with Inkscape (http://www.inkscape.org/) -->

<svg
   width="100"
   height="100"
   viewBox="0 0 26.458333 26.458331"
   version="1.1"
   id="svg32214"
   xml:space="preserve"
   inkscape:export-filename="versage.png"
   inkscape:export-xdpi="94.080002"
   inkscape:export-ydpi="94.080002"
   inkscape:version="1.2.2 (732a01da63, 2022-12-09)"
   sodipodi:docname="xiomi.svg"
   xmlns:inkscape="http://www.inkscape.org/namespaces/inkscape"
   xmlns:sodipodi="http://sodipodi.sourceforge.net/DTD/sodipodi-0.dtd"
   xmlns="http://www.w3.org/2000/svg"
   xmlns:svg="http://www.w3.org/2000/svg"><sodipodi:namedview
     id="namedview32216"
     pagecolor="#ffffff"
     bordercolor="#000000"
     borderopacity="0.25"
     inkscape:showpageshadow="2"
     inkscape:pageopacity="0.0"
     inkscape:pagecheckerboard="0"
     inkscape:deskcolor="#d1d1d1"
     inkscape:document-units="mm"
     showgrid="false"
     inkscape:zoom="2.1719924"
     inkscape:cx="44.889661"
     inkscape:cy="-28.54522"
     inkscape:window-width="1920"
     inkscape:window-height="1057"
     inkscape:window-x="-8"
     inkscape:window-y="-8"
     inkscape:window-maximized="1"
     inkscape:current-layer="layer1-9" /><defs
     id="defs32211"><pattern
       id="EMFhbasepattern"
       patternUnits="userSpaceOnUse"
       width="6"
       height="6"
       x="0"
       y="0" /><pattern
       id="EMFhbasepattern-9"
       patternUnits="userSpaceOnUse"
       width="6"
       height="6"
       x="0"
       y="0" /><pattern
       id="EMFhbasepattern-7"
       patternUnits="userSpaceOnUse"
       width="6"
       height="6"
       x="0"
       y="0" /><clipPath
       clipPathUnits="userSpaceOnUse"
       id="clipPath33521"><rect
         style="fill:none;stroke:#00ff00;stroke-width:0.105833"
         id="rect33523"
         width="75.202255"
         height="106.69482"
         x="-81.052208"
         y="126.72875" /></clipPath><inkscape:perspective
       sodipodi:type="inkscape:persp3d"
       inkscape:vp_x="0 : 539.41023 : 1"
       inkscape:vp_y="0 : 999.99996 : 0"
       inkscape:vp_z="744.09447 : 539.41023 : 1"
       inkscape:persp3d-origin="372.04724 : 364.01654 : 1"
       id="perspective10" /><inkscape:perspective
       id="perspective2399"
       inkscape:persp3d-origin="358.69965 : 174.44867 : 1"
       inkscape:vp_z="717.39928 : 255.05843 : 1"
       inkscape:vp_y="0 : 999.99996 : 0"
       inkscape:vp_x="0 : 255.05843 : 1"
       sodipodi:type="inkscape:persp3d" /><clipPath
       id="clipPath831"><path
         d="M 0,595.28 H 841.89 V 0 H 0 Z"
         id="path33767" /></clipPath><style
       id="style3233">.cls-1{fill:#fff}</style><inkscape:perspective
       sodipodi:type="inkscape:persp3d"
       inkscape:vp_x="0 : 539.41023 : 1"
       inkscape:vp_y="0 : 999.99996 : 0"
       inkscape:vp_z="744.09447 : 539.41023 : 1"
       inkscape:persp3d-origin="372.04724 : 364.01654 : 1"
       id="perspective10-5" /><inkscape:perspective
       id="perspective2390"
       inkscape:persp3d-origin="372.04724 : 364.01654 : 1"
       inkscape:vp_z="744.09447 : 539.41023 : 1"
       inkscape:vp_y="0 : 999.99996 : 0"
       inkscape:vp_x="0 : 539.41023 : 1"
       sodipodi:type="inkscape:persp3d" /><inkscape:perspective
       id="perspective2405"
       inkscape:persp3d-origin="372.04724 : 364.01654 : 1"
       inkscape:vp_z="744.09447 : 539.41023 : 1"
       inkscape:vp_y="0 : 999.99996 : 0"
       inkscape:vp_x="0 : 539.41023 : 1"
       sodipodi:type="inkscape:persp3d" /><inkscape:perspective
       sodipodi:type="inkscape:persp3d"
       inkscape:vp_x="0 : 526.18109 : 1"
       inkscape:vp_y="0 : 1000 : 0"
       inkscape:vp_z="744.09448 : 526.18109 : 1"
       inkscape:persp3d-origin="372.04724 : 350.78739 : 1"
       id="perspective10-7" /><inkscape:perspective
       id="perspective2390-6"
       inkscape:persp3d-origin="372.04724 : 350.78739 : 1"
       inkscape:vp_z="744.09448 : 526.18109 : 1"
       inkscape:vp_y="0 : 1000 : 0"
       inkscape:vp_x="0 : 526.18109 : 1"
       sodipodi:type="inkscape:persp3d" /><inkscape:perspective
       id="perspective2405-7"
       inkscape:persp3d-origin="372.04724 : 350.78739 : 1"
       inkscape:vp_z="744.09448 : 526.18109 : 1"
       inkscape:vp_y="0 : 1000 : 0"
       inkscape:vp_x="0 : 526.18109 : 1"
       sodipodi:type="inkscape:persp3d" /><style
       id="style3233-9">.cls-1{fill:#fff}</style><clipPath
       id="clipPath831-9"><path
         d="M 0,595.28 H 841.89 V 0 H 0 Z"
         id="path34476" /></clipPath></defs><g
     inkscape:label="Layer 1"
     inkscape:groupmode="layer"
     id="layer1"
     transform="translate(-40.2871,-85.425155)"><g
       id="g8882"
       transform="matrix(0.03984374,0,0,0.03984374,-2.7182696,74.491022)"
       style="stroke-width:6.64052"><g
         id="layer1-9"
         transform="matrix(6.6405245,0,0,6.6405245,841.91346,-712.43396)"><g
           transform="matrix(0.95690779,0,0,-0.95697444,-496.21494,526.74671)"
           id="g34491"
           clip-path="url(#clipPath34520)"
           style="stroke-width:13.2814"><path
             d="m 656.46,290.64 h -96.563 c -2.191,0 -3.967,1.776 -3.967,3.967 v 96.563 c 0,2.191 1.776,3.966 3.967,3.966 h 96.563 c 2.191,0 3.967,-1.775 3.967,-3.966 v -96.563 c 0,-2.191 -1.776,-3.967 -3.967,-3.967"
             fill="#ff6700"
             fill-rule="evenodd"
             id="path34481"
             style="stroke-width:26.5635" /><g
             fill="#ffffff"
             id="g34489"
             style="stroke-width:26.5635"><path
               d="m 637.87,362.27 h -8.221 c -0.352,0 -0.637,-0.28 -0.637,-0.625 v -37.509 c 0,-0.342 0.285,-0.622 0.637,-0.622 h 8.221 c 0.349,0 0.638,0.28 0.638,0.622 v 37.509 c 0,0.345 -0.289,0.625 -0.638,0.625"
               id="path34483"
               style="stroke-width:13.2814" /><path
               d="m 609.8,362.27 h -31.315 c -0.352,0 -0.635,-0.28 -0.635,-0.625 v -37.509 c 0,-0.342 0.283,-0.622 0.635,-0.622 h 8.223 c 0.35,0 0.64,0.28 0.64,0.622 v 29.439 c 0,0.34 0.283,0.622 0.635,0.622 h 17.713 c 4.981,0 6.395,-3.815 6.395,-6.276 v -23.785 c 0,-0.342 0.286,-0.622 0.638,-0.622 h 8.218 c 0.35,0 0.637,0.28 0.637,0.622 v 26.609 c 0,2.195 -0.264,5.351 -3.096,8.129 -2.963,2.9 -5.666,3.396 -8.688,3.396"
               id="path34485"
               style="stroke-width:13.2814" /><path
               d="m 604.04,347.33 h -8.633 c -0.352,0 -0.641,-0.28 -0.641,-0.623 v -22.574 c 0,-0.341 0.289,-0.621 0.641,-0.621 h 8.633 c 0.349,0 0.635,0.28 0.635,0.621 v 22.574 c 0,0.343 -0.286,0.623 -0.635,0.623"
               id="path34487"
               style="stroke-width:13.2814" /></g></g></g></g></g><style
     type="text/css"
     id="style33823">
	.st0{fill:#97741F;}
	.st1{fill:#004C25;}
</style></svg>
