<?xml version="1.0" encoding="UTF-8" standalone="no"?>
<!-- Created with Inkscape (http://www.inkscape.org/) -->

<svg
   width="100"
   height="100"
   viewBox="0 0 26.458333 26.458331"
   version="1.1"
   id="svg32214"
   xml:space="preserve"
   inkscape:export-filename="versage.png"
   inkscape:export-xdpi="94.080002"
   inkscape:export-ydpi="94.080002"
   inkscape:version="1.2.2 (732a01da63, 2022-12-09)"
   sodipodi:docname="zara.svg"
   xmlns:inkscape="http://www.inkscape.org/namespaces/inkscape"
   xmlns:sodipodi="http://sodipodi.sourceforge.net/DTD/sodipodi-0.dtd"
   xmlns="http://www.w3.org/2000/svg"
   xmlns:svg="http://www.w3.org/2000/svg"><sodipodi:namedview
     id="namedview32216"
     pagecolor="#ffffff"
     bordercolor="#000000"
     borderopacity="0.25"
     inkscape:showpageshadow="2"
     inkscape:pageopacity="0.0"
     inkscape:pagecheckerboard="0"
     inkscape:deskcolor="#d1d1d1"
     inkscape:document-units="mm"
     showgrid="false"
     inkscape:zoom="3.071661"
     inkscape:cx="76.017502"
     inkscape:cy="36.462357"
     inkscape:window-width="1920"
     inkscape:window-height="1057"
     inkscape:window-x="-8"
     inkscape:window-y="-8"
     inkscape:window-maximized="1"
     inkscape:current-layer="layer1-9" /><defs
     id="defs32211"><pattern
       id="EMFhbasepattern"
       patternUnits="userSpaceOnUse"
       width="6"
       height="6"
       x="0"
       y="0" /><pattern
       id="EMFhbasepattern-9"
       patternUnits="userSpaceOnUse"
       width="6"
       height="6"
       x="0"
       y="0" /><pattern
       id="EMFhbasepattern-7"
       patternUnits="userSpaceOnUse"
       width="6"
       height="6"
       x="0"
       y="0" /><clipPath
       clipPathUnits="userSpaceOnUse"
       id="clipPath33521"><rect
         style="fill:none;stroke:#00ff00;stroke-width:0.105833"
         id="rect33523"
         width="75.202255"
         height="106.69482"
         x="-81.052208"
         y="126.72875" /></clipPath><inkscape:perspective
       sodipodi:type="inkscape:persp3d"
       inkscape:vp_x="0 : 539.41023 : 1"
       inkscape:vp_y="0 : 999.99996 : 0"
       inkscape:vp_z="744.09447 : 539.41023 : 1"
       inkscape:persp3d-origin="372.04724 : 364.01654 : 1"
       id="perspective10" /><inkscape:perspective
       id="perspective2399"
       inkscape:persp3d-origin="358.69965 : 174.44867 : 1"
       inkscape:vp_z="717.39928 : 255.05843 : 1"
       inkscape:vp_y="0 : 999.99996 : 0"
       inkscape:vp_x="0 : 255.05843 : 1"
       sodipodi:type="inkscape:persp3d" /><clipPath
       id="clipPath831"><path
         d="M 0,595.28 H 841.89 V 0 H 0 Z"
         id="path33767" /></clipPath><style
       id="style3233">.cls-1{fill:#fff}</style><inkscape:perspective
       sodipodi:type="inkscape:persp3d"
       inkscape:vp_x="0 : 539.41023 : 1"
       inkscape:vp_y="0 : 999.99996 : 0"
       inkscape:vp_z="744.09447 : 539.41023 : 1"
       inkscape:persp3d-origin="372.04724 : 364.01654 : 1"
       id="perspective10-5" /><inkscape:perspective
       id="perspective2390"
       inkscape:persp3d-origin="372.04724 : 364.01654 : 1"
       inkscape:vp_z="744.09447 : 539.41023 : 1"
       inkscape:vp_y="0 : 999.99996 : 0"
       inkscape:vp_x="0 : 539.41023 : 1"
       sodipodi:type="inkscape:persp3d" /><inkscape:perspective
       id="perspective2405"
       inkscape:persp3d-origin="372.04724 : 364.01654 : 1"
       inkscape:vp_z="744.09447 : 539.41023 : 1"
       inkscape:vp_y="0 : 999.99996 : 0"
       inkscape:vp_x="0 : 539.41023 : 1"
       sodipodi:type="inkscape:persp3d" /></defs><g
     inkscape:label="Layer 1"
     inkscape:groupmode="layer"
     id="layer1"
     transform="translate(-40.2871,-85.425155)"><g
       id="g8882"
       transform="matrix(0.03984374,0,0,0.03984374,-2.7182696,74.491022)"
       style="stroke-width:6.64052"><g
         id="layer1-9"
         transform="matrix(6.6405245,0,0,6.6405245,841.91346,-712.43396)"><g
           style="clip-rule:evenodd;fill-rule:evenodd;stroke-width:66.4052;stroke-linejoin:round;stroke-miterlimit:1.41421"
           id="g34183"
           transform="matrix(0.1,0,0,0.1,35.755799,177.58035)"><path
             d="M 948.70844,408.17918 800.55135,0.26917 800.44926,0 h -2.9238 L 767.01598,83.824495 711.47332,236.42759 711.34335,236.307 c -19.25059,-16.9858 -46.40932,-27.60425 -80.61297,-31.55833 l -10.43282,-1.07669 10.34927,-1.32731 c 56.40588,-10.1358 94.32228,-45.75958 94.32228,-88.67892 0,-58.856285 -55.35702,-99.93781 -134.65197,-99.93781 H 425.33207 v 2.97948 h 47.94081 V 320.82757 L 356.8412,0.26917 356.73911,0 h -2.9238 l -30.50948,83.824495 -117.67544,323.305835 -0.724,0.0835 c -2.01137,0.24783 -4.00048,0.44553 -5.96824,0.59404 -2.96091,0.23205 -5.90325,0.37128 -8.85489,0.37128 H 71.182603 L 297.19596,16.70733 l 1.68,-2.94235 H 22.452825 v 121.10048 h 2.933069 C 25.905678,75.879222 60.25785,16.70735 136.15564,16.70735 h 91.56557 L 0,411.11225 H 306.78411 V 295.08897 h -2.93307 c -0.39911,51.41223 -29.54416,100.24411 -92.92071,111.27096 l -2.01417,0.34342 48.26569,-132.66565 h 135.20889 l 48.72049,134.14148 h -48.06149 v 2.93307 h 188.6353 v -2.93307 h -48.26568 v -202.3446 h 55.69116 c 56.67506,0 89.18014,25.32091 89.18014,69.44689 v 35.89296 c 0,3.95408 0.26918,9.73667 0.5662,14.57253 v 0.17635 l -29.93401,82.2373 h -39.10449 v 2.93308 h 80.94712 v -2.93308 h -38.6868 l 27.26083,-74.88606 c 0.0557,0.72398 0.0835,1.16023 0.0835,1.16023 l 0.75183,6.74791 0.72399,4.46457 c 4.54811,27.61356 15.11088,47.91299 31.38198,60.33212 l 2.33903,1.69858 c 12.36344,8.595 27.72491,12.94819 45.68532,12.94819 23.78941,0 39.65212,-5.93111 52.74882,-19.89102 l -1.71713,-1.61505 c -12.06643,11.13824 -22.19294,15.64922 -34.88125,15.64922 -21.61746,0 -32.93204,-26.22126 -32.93204,-52.08052 v -50.28914 c 0.11505,-12.47854 -1.83874,-24.88931 -5.78261,-36.72833 l -0.53835,-1.55935 v -0.0557 h 98.89825 l 48.72049,134.14148 h -48.06148 v 2.93307 H 1000 v -2.93307 z M 258.25854,271.10463 324.86519,88.112716 391.32332,271.10463 Z M 533.4472,202.89223 V 16.70735 h 42.51092 c 56.78644,0 86.76686,33.758133 86.76686,97.5895 0,67.88755 -17.20858,88.59538 -73.61446,88.59538 z m 202.60449,68.2124 -0.28773,-0.72398 C 731.369,259.67681 724.971,249.91043 716.91249,241.60687 l -2.78456,-2.78455 -0.29702,-0.27846 54.7073,-150.431144 66.45813,182.991914 z"
             style="fill-rule:nonzero;stroke-width:9.28186"
             id="path815"
             inkscape:connector-curvature="0" /></g></g></g></g><style
     type="text/css"
     id="style33823">
	.st0{fill:#97741F;}
	.st1{fill:#004C25;}
</style></svg>
