<?xml version="1.0" encoding="UTF-8" standalone="no"?>
<!-- Created with Inkscape (http://www.inkscape.org/) -->

<svg
   width="172.00677"
   height="50.000015"
   viewBox="0 0 45.510125 13.22917"
   version="1.1"
   id="svg2314"
   inkscape:version="1.2.2 (732a01da63, 2022-12-09)"
   sodipodi:docname="logoShop.svg"
   inkscape:export-filename="logoImg2.png"
   inkscape:export-xdpi="96"
   inkscape:export-ydpi="96"
   xmlns:inkscape="http://www.inkscape.org/namespaces/inkscape"
   xmlns:sodipodi="http://sodipodi.sourceforge.net/DTD/sodipodi-0.dtd"
   xmlns="http://www.w3.org/2000/svg"
   xmlns:svg="http://www.w3.org/2000/svg">
  <sodipodi:namedview
     id="namedview2316"
     pagecolor="#ffffff"
     bordercolor="#000000"
     borderopacity="0.25"
     inkscape:showpageshadow="2"
     inkscape:pageopacity="0.0"
     inkscape:pagecheckerboard="0"
     inkscape:deskcolor="#d1d1d1"
     inkscape:document-units="px"
     showgrid="false"
     inkscape:zoom="6.1433222"
     inkscape:cx="42.07821"
     inkscape:cy="-13.185048"
     inkscape:window-width="1920"
     inkscape:window-height="1017"
     inkscape:window-x="-8"
     inkscape:window-y="1072"
     inkscape:window-maximized="1"
     inkscape:current-layer="layer1" />
  <defs
     id="defs2311" />
  <g
     inkscape:label="Layer 1"
     inkscape:groupmode="layer"
     id="layer1"
     transform="translate(-27.079489,-145.57296)">
    <path
       style="fill:#eb567b;fill-opacity:1;stroke:none;stroke-width:0.0266023"
       d="m 37.332273,154.94569 v -6.4542 c -0.51588,-1.13747 -2.249557,-1.97762 -3.493916,-0.65513 l -6.138695,6.16304 c -1.17187,0.94081 -0.681004,2.88345 1.455815,3.22711 h 6.01738 c 1.578744,-0.23743 2.060663,-1.14251 2.159416,-2.28082 z"
       id="path4673-1"
       sodipodi:nodetypes="ccccccc" />
    <path
       style="opacity:0.551247;fill:#1dafff;fill-opacity:1;stroke:none;stroke-width:0.0266442;stroke-dasharray:none"
       d="m 31.863429,145.57296 h 5.811137 c 1.521464,0.14511 3.054853,1.64467 1.298105,3.49396 l -6.162958,6.13877 c -1.441322,0.96114 -2.965117,0.0553 -3.227076,-1.4437 v -6.02959 c 0.237433,-1.57876 1.142497,-2.06069 2.280792,-2.15944 z"
       id="path4673-4-3"
       sodipodi:nodetypes="ccccccc" />
    <g
       id="g244"
       transform="matrix(0.25136181,0,0,0.25136181,21.05352,108.98148)"
       style="fill:#ffffff">
      <path
         d="m 166.25615,187.47246 c 6.05658,-0.168 11.12872,-2.27093 11.12872,-11.4824 v -5.4499 c 0,-6.76933 -4.51287,-10.1224 -11.33349,-10.17366 -6.8719,0.0533 -11.14569,3.40433 -11.14569,10.17366 v 5.4499 c 0,7.81487 3.51717,11.69947 11.35046,11.4824 z m -0.2048,-5.552 c -2.67159,-0.04 -2.98619,-2.35207 -3.0087,-4.49433 l -0.0683,-6.4959 c -0.0227,-2.12113 0.55687,-4.60573 3.21366,-4.4602 2.77344,0.152 3.12239,1.95647 3.11093,4.153 l -0.034,6.5301 c -0.0213,4.14933 -1.3162,4.7948 -3.21348,4.76733 z"
         id="path1987-2-9"
         style="font-size:44.9792px;font-family:Boodle-Black;-inkscape-font-specification:'Boodle-Black, Normal';text-align:center;text-anchor:middle;fill:#ffffff;fill-opacity:1;stroke-width:0.106"
         sodipodi:nodetypes="ssscsssssssssss" />
      <path
         d="m 132.39681,187.41054 c 2.40175,-0.1336 3.88035,-1.33287 3.95783,-5.33793 l 0.19307,-9.9791 c 0.0453,-2.35853 1.23381,-5.10407 3.28512,-5.10407 1.89746,0 2.64611,1.43294 2.63654,3.79194 l -0.048,11.89416 c -0.009,2.2564 1.07395,4.44548 4.44048,4.73508 2.24813,0.19333 3.48547,-2.47901 3.52344,-4.73508 l 0.2172,-12.90483 c 0.0975,-5.79407 -3.94341,-9.19553 -8.7127,-9.19553 -3.68707,0.51666 -4.3816,1.6244 -5.35387,4.565 l -0.0845,-11.23087 c -0.0167,-2.2564 -1.84618,-4.1026 -4.10263,-4.1026 -2.25643,0 -4.10261,1.84614 -4.10261,4.1026 v 29.12863 c 0.0597,0.62059 0.53074,4.04259 4.15087,4.3726 z"
         id="path1985-1"
         style="font-size:44.9792px;font-family:Boodle-Black;-inkscape-font-specification:'Boodle-Black, Normal';text-align:center;text-anchor:middle;fill:#ffffff;fill-opacity:1;stroke-width:0.106"
         sodipodi:nodetypes="cssssssssccsssccc" />
      <path
         d="m 111.64439,187.68174 c 6.94179,-0.34733 11.32016,-2.4102 11.47148,-9.68553 -0.16626,-7.4549 -3.13703,-9.0969 -10.72025,-13.5867 -2.87186,-1.67373 -3.85877,-3.63967 -3.93108,-5.2278 -0.0845,-1.85627 0.81985,-3.5722 3.29941,-3.41767 1.85948,0.116 3.41487,0.68687 3.48705,2.73367 -0.009,0.7514 0.0667,1.8276 0.58174,2.5316 0.72589,0.99227 2.05444,1.515 3.23,1.36407 2.18721,-0.28067 3.40363,-1.16327 3.69236,-3.3182 -0.1344,-7.852 -6.15116,-10.0108 -14.21631,-9.0584 -3.77735,0.446 -6.95072,2.8448 -7.9382,8.21046 -0.41547,2.25754 -0.1414,4.78927 1.57016,6.64027 0.4046,0.43733 1.39887,1.43707 2.44705,2.30733 1.2607,1.0468 2.69083,2.02847 4.4802,3.23854 l 2.44461,1.58813 c 4.16224,3.82313 3.41984,3.95046 3.5728,5.43236 0.22554,2.18467 -0.78864,4.16267 -3.21492,4.13527 -2.64685,-0.0267 -3.89864,-1.41173 -3.81244,-3.75873 -0.28707,-1.81557 -2.43905,-3.4567 -4.18731,-3.40077 -2.15277,0.0687 -4.461593,1.74363 -3.948767,4.35903 0.670877,5.67314 5.408207,9.22727 11.692437,8.91307 z"
         id="path1983-0-3"
         style="font-size:44.9792px;font-family:Boodle-Black;-inkscape-font-specification:'Boodle-Black, Normal';text-align:center;text-anchor:middle;fill:#ffffff;fill-opacity:1;stroke-width:0.106"
         sodipodi:nodetypes="sccsscsscssssccsscscs" />
      <path
         d="m 186.9728,198.20294 c 2.25645,0 4.10264,-1.84614 4.10264,-4.1026 v -10.9774 l 0.12673,-0.0727 c 0.87656,2.89027 3.46861,4.34294 5.92465,4.4146 5.02357,0.14667 7.96306,-4.39633 7.89972,-8.61306 l -0.17106,-11.3885 c -0.024,-1.60527 -1.21141,-3.36973 -2.24098,-4.45307 -2.79966,-2.74453 -6.49338,-2.47826 -7.40621,-2.15946 -2.40365,0.72566 -3.66596,2.80893 -4.36787,4.29646 0.11787,-3.40446 -1.634,-4.34173 -3.96415,-4.43526 -2.54654,-0.11934 -4.00609,1.26933 -4.00609,4.25946 v 29.12863 c 0,2.25647 1.84617,4.1026 4.10261,4.1026 z m 7.41977,-17.0598 c -2.09811,-0.13733 -3.31713,-3.6376 -3.31713,-4.44333 v -5.47157 c 0,-2.1026 0.97562,-4.341 3.07822,-4.341 2.05132,0 2.74382,0.77094 2.75394,3.0782 l 0.034,7.79237 c 0.008,1.85793 -0.78655,3.5008 -2.54916,3.38533 z"
         id="path1989-9-8"
         style="font-size:44.9792px;font-family:Boodle-Black;-inkscape-font-specification:'Boodle-Black, Normal';text-align:center;text-anchor:middle;fill:#ffffff;fill-opacity:1;stroke-width:0.106"
         sodipodi:nodetypes="ssccsssccccssssssssssss" />
    </g>
  </g>
</svg>
